<?xml version="1.0" encoding="utf-8"?>
<svg id="master-artboard" viewBox="0 0 1400 1000" version="1.1" xmlns="http://www.w3.org/2000/svg" x="0px" y="0px" width="1400px" height="1000px" enable-background="new 0 0 1400 1000" xmlns:xlink="http://www.w3.org/1999/xlink">
<linearGradient id="SVGID_1_" gradientUnits="userSpaceOnUse" x1="0" y1="500" x2="1400" y2="500">
		<stop offset="0" style="stop-color:#1C1C1C"/>
		<stop offset="1" style="stop-color:#000000"/>
	</linearGradient><path d="M 0 0 H 1400 V 1000 H 0 V 0 Z" fill="url(#SVGID_1_)" transform="matrix(1, 0, 0, 1, 2.842170943040401e-14, 7.105427357601002e-15)"/><defs>
			<path d="M 0 0 H 1400 V 1000 H 0 V 0 Z" id="SVGID_2_"/>
		</defs><clipPath id="SVGID_3_">
			<use overflow="visible" xlink:href="#SVGID_2_"/>
		</clipPath><g transform="matrix(1, 0, 0, 1, 8.526512829121202e-14, 2.1316282072803006e-14)">
				<linearGradient id="SVGID_4_" gradientUnits="userSpaceOnUse" x1="-134.4079" y1="737.6836" x2="659.5967" y2="737.6836">
					<stop offset="0" style="stop-color:#1C1C1C"/>
					<stop offset="1" style="stop-color:#000000"/>
				</linearGradient>
				<path fill="url(#SVGID_4_)" d="M-11.8,897.9c-35.9-11.4-75.4-31.4-83.3-68.2c-12-55.2,55.1-101.8,50.3-158.2&#10;&#9;&#9;&#9;&#9;&#9;c-2.9-33.7-30.4-59-50.2-86.5c-38.7-53.8-49.8-126.3-29-189.2c6.8-20.6,17.9-41.3,37-51.8c33.7-18.5,74.7,2,107.5,22&#10;&#9;&#9;&#9;&#9;&#9;c32,19.6,63.9,39.1,95.9,58.7c13,7.9,27.6,16.2,42.5,13.1c10.2-2.1,18.4-9.2,27.4-14.5c28.4-16.8,66.6-15,93.3,4.3&#10;&#9;&#9;&#9;&#9;&#9;s40.2,55.2,33,87.4c-3.1,13.8-9.7,26.8-11.7,40.8c-4,28.1,10.9,56,31.3,75.7c20.4,19.7,46,32.9,70.2,47.8&#10;&#9;&#9;&#9;&#9;&#9;c124.2,76.4,216.7,202.7,252,344.2c5.8,23.2,9.5,49.8-4.3,69.3c-21.1,29.8-67.1,23.4-100.5,8.7c-20.1-8.9-39.4-19.6-57.6-31.9&#10;&#9;&#9;&#9;&#9;&#9;c-19.3-13.2-39-28.8-62.4-29.9c-64.9-3-95.2,102.6-160.1,98.6c-31.7-2-55.5-31.9-63.2-62.8c-2.2-8.9-3.6-18.3-8.6-26&#10;&#9;&#9;&#9;&#9;&#9;c-11.6-18-37.5-19.4-58.4-14.8c-20.9,4.6-42.3,13.1-63.1,7.9c-21.7-5.4-37.6-25.4-42.9-47.2C20.6,942.8,55.1,919.2-11.8,897.9z"/>
				<linearGradient id="SVGID_5_" gradientUnits="userSpaceOnUse" x1="262.5813" y1="1393.9084" x2="262.5813" y2="193.4097">
					<stop offset="0" style="stop-color:#1C1C1C"/>
					<stop offset="1" style="stop-color:#000000"/>
				</linearGradient>
				<path fill="url(#SVGID_5_)" d="M273.1,1108.5c-0.6,0-1.2,0-1.7-0.1c-8.9-0.6-16.1-6.4-20.6-11.1c-7-7.5-12.6-18.1-15.4-28.9&#10;&#9;&#9;&#9;&#9;&#9;c-0.4-1.5-0.7-3.1-1.1-4.7c-2-8.8-4.5-19.7-11.4-30.3c-12.8-19.8-35.5-30.7-63.9-30.7c-8.5,0-17.3,1-26.1,2.9&#10;&#9;&#9;&#9;&#9;&#9;c-5.2,1.1-10.2,2.4-15.1,3.7c-10.2,2.6-19.9,5.1-27.8,5.1c-2.4,0-4.6-0.2-6.5-0.7c-9.3-2.3-18-12.7-21-25.1&#10;&#9;&#9;&#9;&#9;&#9;c-3.1-12.8-2.5-23.3-1.8-34.4c0.9-14.8,1.9-31.6-8.1-48.3c-9.6-16.1-26.8-27.4-55.5-36.5c-26-8.2-58.1-22.9-63.1-46&#10;&#9;&#9;&#9;&#9;&#9;c-3.8-17.5,7.7-37.4,20.9-60.5c15.5-26.9,33-57.5,29.9-93.8c-3-35-23.7-60.9-42-83.8c-4.9-6.1-9.5-11.9-13.7-17.7&#10;&#9;&#9;&#9;&#9;&#9;c-33.2-46.1-42.7-108.3-24.9-162.2c4.1-12.4,11.4-28.6,22.9-34.9c4.3-2.4,9.2-3.5,14.8-3.5c19.7,0,45.2,14.2,62.6,24.9&#10;&#9;&#9;&#9;&#9;&#9;l95.9,58.7c14.4,8.8,31.4,18.2,51.6,18.2c4.3,0,8.5-0.4,12.7-1.3c13.1-2.7,22.9-9.2,30.8-14.4c2.1-1.4,4-2.6,5.7-3.7&#10;&#9;&#9;&#9;&#9;&#9;c8.1-4.8,17.7-7.3,27.8-7.3c12,0,23.6,3.6,32.6,10.1c17,12.3,25.9,36.1,21.3,56.5c-1,4.4-2.7,9.3-4.4,14.5&#10;&#9;&#9;&#9;&#9;&#9;c-2.9,8.4-6.1,17.9-7.7,28.6c-5.1,35.1,9.6,72.1,40.2,101.6c18.8,18.1,40.1,30.7,60.7,43c5.1,3,9.8,5.8,14.6,8.8&#10;&#9;&#9;&#9;&#9;&#9;c57.7,35.5,109.8,83.8,150.9,139.8c41,56,71.4,120.4,87.8,186c3.6,14.3,7.5,34.5,0.3,44.7c-1.5,2.1-5.9,8.4-22.5,8.4&#10;&#9;&#9;&#9;&#9;&#9;c-12.1,0-27.2-3.6-41.3-9.8c-18.4-8.1-36.2-18-52.8-29.3c-2.2-1.5-4.3-3-6.5-4.5c-18.8-13-42.1-29.2-71.4-30.6&#10;&#9;&#9;&#9;&#9;&#9;c-1.4-0.1-2.7-0.1-4.1-0.1c-44,0-73.3,31.4-99.1,59C308.8,1089.2,290.8,1108.5,273.1,1108.5z"/>
				<linearGradient id="SVGID_6_" gradientUnits="userSpaceOnUse" x1="-35.0574" y1="761.6934" x2="508.0819" y2="761.6934">
					<stop offset="0" style="stop-color:#1C1C1C"/>
					<stop offset="1" style="stop-color:#000000"/>
				</linearGradient>
				<path fill="url(#SVGID_6_)" d="M301.5,822.8c-49.2-60.3-64.4-140.9-74-218.2c-3.5-28.1-8.6-60.1-32.5-75.5&#10;&#9;&#9;&#9;&#9;&#9;c-31.8-20.5-73.5,2-111.1-1.4c-17.5-1.6-34.4-9.2-47.2-21.2c-9.3-8.7-17.3-20.1-29.5-23.3c-14.4-3.8-29.7,5.9-36.6,19.1&#10;&#9;&#9;&#9;&#9;&#9;c-12,22.9-3.1,51.2,10.4,73.3s31.4,42,38.9,66.7c10.1,33.4-0.8,69.2-12.6,102c-3.9,10.8-8,22-7.3,33.6&#10;&#9;&#9;&#9;&#9;&#9;c3.4,49.9,87.4,60,94.5,109.6c2.9,20.5-8.8,43.6,2.3,61.1c17.4,27.2,60.1,5.2,91.6,12.6c39.8,9.3,53.4,64.5,92.2,77.3&#10;&#9;&#9;&#9;&#9;&#9;c45.2,14.9,88.2-36.5,135.6-33.2c20.4,1.4,39.3,13.1,59.7,13.2c26.3,0.2,38.5-23.7,28.9-44.6c-8.4-18.3-51.5-37.2-68-47.6&#10;&#9;&#9;&#9;&#9;&#9;C388.8,895.7,338,867.5,301.5,822.8z"/>
				<linearGradient id="SVGID_7_" gradientUnits="userSpaceOnUse" x1="228.48" y1="1222.8914" x2="228.48" y2="520.5071">
					<stop offset="0" style="stop-color:#1C1C1C"/>
					<stop offset="1" style="stop-color:#000000"/>
				</linearGradient>
				<path fill="url(#SVGID_7_)" d="M232.4,818.6c-11.8-31.6-3.8-68.1-15.7-99.7c-10-26.6-32.7-46-54.5-64.3&#10;&#9;&#9;&#9;&#9;&#9;c-5.3-4.5-11-9.1-17.8-10.4c-6-1.2-12.3,0.3-17.8,2.9c-19.9,9.3-31.3,33.8-25.5,55c6.5,23.9,31.2,41.3,32.3,66.1&#10;&#9;&#9;&#9;&#9;&#9;c0.9,21.4-16.5,43.4-7.2,62.7c9.1,19,35.7,19.1,54.7,28.5c20,9.9,31.6,31,47.8,46.6c26.5,25.6,67.2,35.3,102.4,24.5&#10;&#9;&#9;&#9;&#9;&#9;c59.2-18.2,3.1-33.6-16.2-39.8C281.3,879.9,245,852.3,232.4,818.6z"/>
			</g><linearGradient id="SVGID_8_" gradientUnits="userSpaceOnUse" x1="579.7112" y1="677.2831" x2="1688.9098" y2="677.2831">
				<stop offset="0" style="stop-color:#1C1C1C"/>
				<stop offset="1" style="stop-color:#000000"/>
			</linearGradient><path fill="url(#SVGID_8_)" d="M740.5,922.9C714.2,860.8,653,822.1,607.9,772c-10-11.1-19.4-23.1-24.4-37.2&#10;&#9;&#9;&#9;&#9;c-17.3-48.7,27.7-101.9,78.5-111.7c27.8-5.3,57.6-1.7,83.5-13.1c33.3-14.7,51.5-49.9,70.1-81.2c19.6-33,42.2-64.2,67.5-93.1&#10;&#9;&#9;&#9;&#9;c9.5-10.8,20.2-21.9,34.3-25.1c27.8-6.3,51.2,19.6,77.1,31.4c39.5,18,87.6,1.3,119.4-28.2s51.1-69.6,71.2-108&#10;&#9;&#9;&#9;&#9;s42.9-77.5,78.8-101.8c25.9-17.5,56.8-26.1,87.7-30.9c30.7-4.7,62.8-5.9,92,4.7c25.4,9.2,46.9,26.6,71.1,38.6&#10;&#9;&#9;&#9;&#9;c28.8,14.4,61.1,21.2,89.4,36.7c48.4,26.5,81.5,79,84.4,134.1c4.3,80-49.3,150.2-100.2,212.2s-104.8,131.8-101.2,211.9&#10;&#9;&#9;&#9;&#9;c2.1,47.7,25,93.2,23.9,141c-1.4,58-38,109.4-80.2,149.1c-33,31-71,57.8-113.9,72.2c-42.9,14.5-91.3,15.9-132.9-2&#10;&#9;&#9;&#9;&#9;c-56.8-24.4-99.8-82.9-161.5-86.6c-29.5-1.8-57.9,9.7-85.1,21.2c-34.7,14.6-70.6,29.8-108.3,29.5c-38.3-0.2-83.1-20.4-84.6-60.9&#10;&#9;&#9;&#9;&#9;C742.7,1020.9,763.6,977.5,740.5,922.9z" transform="matrix(1, 0, 0, 1, 8.526512829121202e-14, 2.1316282072803006e-14)"/><linearGradient id="SVGID_9_" gradientUnits="userSpaceOnUse" x1="1134.3157" y1="1378.907" x2="1134.3157" y2="408.3065">
				<stop offset="0" style="stop-color:#1C1C1C"/>
				<stop offset="1" style="stop-color:#000000"/>
			</linearGradient><path fill="url(#SVGID_9_)" d="M1250.8,1154.8c-19.8,0-38.2-3.6-54.7-10.7c-19.1-8.2-37.3-21.6-56.5-35.7&#10;&#9;&#9;&#9;&#9;c-68.7-50.5-93.3-52-115-53.3c-2.6-0.2-5.3-0.2-8-0.2c-34.3,0-65.6,13.1-90.6,23.7l-0.5,0.2c-33,13.9-64.2,27-95.3,27l-0.7,0&#10;&#9;&#9;&#9;&#9;c-21.6-0.1-54-10.4-54.8-32c-0.6-16.5,1.3-32.1,3.2-48.7c3.9-33.3,8.4-71-9.8-113.9c-20.4-48.1-57.4-82.3-93.1-115.3&#10;&#9;&#9;&#9;&#9;c-16.1-14.8-31.2-28.9-44.8-43.9c-7.2-8-15-17.4-18.4-27.2c-4.9-13.7-0.1-26.8,4.8-35.4c10.5-18.4,30.6-32.8,51.1-36.8&#10;&#9;&#9;&#9;&#9;c8.6-1.7,18.1-2.3,28.1-3c19.1-1.3,40.8-2.9,61.9-12.1c39.3-17.3,60.3-53.3,79-85.1c1.6-2.8,3.2-5.5,4.8-8.2&#10;&#9;&#9;&#9;&#9;c18.6-31.4,40.2-61.2,64.3-88.6c4-4.6,12.5-14.2,18.4-15.6c0.7-0.2,1.3-0.2,2-0.2c6.9,0,18,7.1,28.6,14&#10;&#9;&#9;&#9;&#9;c8.5,5.5,17.4,11.2,27.4,15.7c14.8,6.7,30.8,10.1,47.7,10.1c36.6,0,74.6-15.9,104.5-43.6c32.9-30.5,53-69.1,72.4-106.5&#10;&#9;&#9;&#9;&#9;c1.7-3.2,3.4-6.5,5-9.7c18.1-34.5,38.3-70,69.1-90.9c18.5-12.6,43.2-21.1,75.4-26.1c13.6-2.1,25.5-3.1,36.4-3.1&#10;&#9;&#9;&#9;&#9;c15.6,0,29,2.1,40.9,6.4c12.5,4.5,24.8,12.1,37.8,20c9.5,5.8,19.3,11.9,30,17.2c15.1,7.6,30.5,13,45.4,18.3&#10;&#9;&#9;&#9;&#9;c15.5,5.5,30.2,10.7,43.1,17.8c39.5,21.6,66.5,64.5,68.9,109.4c3.6,67.5-42.2,129.1-93.5,191.5c-26.1,31.8-53.3,66-74.1,103.7&#10;&#9;&#9;&#9;&#9;c-24.6,44.8-35.7,86.8-33.8,128.5c1.1,25.2,7.1,48.7,12.8,71.5c6,23.6,11.6,45.9,11.1,67.4c-1.2,52-39.2,98.3-70.8,128&#10;&#9;&#9;&#9;&#9;c-34.1,32-68.7,54.1-102.9,65.7C1288.9,1151.5,1269.3,1154.8,1250.8,1154.8z" transform="matrix(1, 0, 0, 1, 8.526512829121202e-14, 2.1316282072803006e-14)"/><linearGradient id="SVGID_10_" gradientUnits="userSpaceOnUse" x1="756.0084" y1="630.7982" x2="1538.5721" y2="630.7982">
				<stop offset="0" style="stop-color:#1C1C1C"/>
				<stop offset="1" style="stop-color:#000000"/>
			</linearGradient><path fill="url(#SVGID_10_)" d="M973.3,546.9c-19-5.9-39.1-12.4-58.3-7.1c-34,9.4-47.4,48.9-63,80.5&#10;&#9;&#9;&#9;&#9;c-16.6,33.8-41.1,63.7-71,86.6c-9.8,7.5-20.8,15.2-24.1,27c-4.9,17.7,9.5,34.3,22.6,47.1c24.3,23.5,48.6,46.9,72.9,70.4&#10;&#9;&#9;&#9;&#9;c23.3,22.5,48.4,56.3,31.3,83.9c-6,9.6-17,19.3-12.5,29.7c2,4.6,6.7,7.4,11.2,9.6c33.6,15.7,76.5,8.7,103.3-17&#10;&#9;&#9;&#9;&#9;c8-7.6,14.7-16.8,23.9-22.7c29.7-19.1,69,2.4,93.6,27.7c24.6,25.3,48.1,57.1,83.1,62.3c33.9,5.1,66.4-18.1,85.3-46.7&#10;&#9;&#9;&#9;&#9;c18.8-28.6,27.6-62.4,40.6-94.1c25.8-62.7,69.5-117.9,124.6-157.5c24.3-17.4,54.5-40,48.2-69.2c-2.5-11.7-10.7-21.2-16.7-31.5&#10;&#9;&#9;&#9;&#9;c-15.6-26.8-16.2-61.7-1.6-89.1c17.8-33.1,55.1-54,67.6-89.4c16.2-46-17.4-96.2-59.1-121.5c-43-26.1-95.6-40.3-117-89.9&#10;&#9;&#9;&#9;&#9;c-19,12.3-9.7,64.9-20.3,83.6C1218.9,529.8,1100.6,586.6,973.3,546.9z" transform="matrix(1, 0, 0, 1, 8.526512829121202e-14, 2.1316282072803006e-14)"/><linearGradient id="SVGID_11_" gradientUnits="userSpaceOnUse" x1="1148.848" y1="1105.8796" x2="1148.848" y2="469.222">
				<stop offset="0" style="stop-color:#1C1C1C"/>
				<stop offset="1" style="stop-color:#000000"/>
			</linearGradient><path fill="url(#SVGID_11_)" d="M1195.9,985.6c-1.2,0-2.4-0.1-3.5-0.3c-15.3-2.3-31-19.2-47.5-37.1c-4.1-4.5-8.4-9.1-12.8-13.6&#10;&#9;&#9;&#9;&#9;c-41.4-42.6-81.5-47.2-96.8-47.2c-17.1,0-33,4.6-47.1,13.7c-10.5,6.7-18,14.8-24.1,21.4c-2.1,2.3-4.1,4.4-5.9,6.1&#10;&#9;&#9;&#9;&#9;c-8.5,8.1-20.9,13.3-33.7,14.1c7.9-21,6.3-44.9-5.1-68.6c-8.2-17-21.3-34.4-39.1-51.6l-72.9-70.4c-3.9-3.7-6.5-6.6-8.3-8.8&#10;&#9;&#9;&#9;&#9;c1.4-1.1,2.9-2.2,4.1-3.2l2.1-1.6c34.7-26.6,63.3-61.4,82.6-100.7c2.4-4.9,4.7-9.9,7-14.7c9.1-19.6,19.4-41.8,30.7-44.9&#10;&#9;&#9;&#9;&#9;c1.3-0.3,2.7-0.5,4.5-0.5c8.1,0,19.4,3.5,30.4,7l0.9,0.3c171.8,53.6,302.5-37.3,415.5-256c1.6-3.2,1.5-7.1,2-10.9&#10;&#9;&#9;&#9;&#9;c14.8,10,30.5,17.9,45.3,25.5c10.8,5.5,21,10.7,30.3,16.4c15.5,9.4,28.9,23.2,36.8,37.8c5,9.2,10,23,5.3,36.2&#10;&#9;&#9;&#9;&#9;c-4,11.5-14.8,22.7-27.2,35.6c-12.8,13.4-27.4,28.6-37.9,48.2c-10.4,19.4-15.7,41.7-15.3,64.4s6.5,44.7,17.6,63.8&#10;&#9;&#9;&#9;&#9;c2.2,3.8,4.5,7.2,6.4,10.2c1.8,2.8,4.5,6.8,5.5,8.9c-0.6,1.3-2.5,4.5-7.8,9.6c-6.7,6.5-15.3,12.8-24.4,19.3&#10;&#9;&#9;&#9;&#9;c-30.4,21.9-57.8,48-81.3,77.7c-23.5,29.7-42.7,62.4-56.9,97c-4.2,10.2-7.9,20.4-11.5,30.2c-7.7,21.1-14.9,41-25.5,57.1&#10;&#9;&#9;&#9;&#9;C1226.8,973.8,1209.8,985.6,1195.9,985.6z" transform="matrix(1, 0, 0, 1, 8.526512829121202e-14, 2.1316282072803006e-14)"/><linearGradient id="SVGID_12_" gradientUnits="userSpaceOnUse" x1="1152.186" y1="1180.8872" x2="1152.186" y2="535.7111">
				<stop offset="0" style="stop-color:#1C1C1C"/>
				<stop offset="1" style="stop-color:#000000"/>
			</linearGradient><path fill="url(#SVGID_12_)" d="M1074.7,807.7c-25.7,5.3-49.4,25.2-75.1,20.1c-10.7-2.1-20.1-8.3-28-15.7&#10;&#9;&#9;&#9;&#9;c-26.3-24.3-37.9-68.7-15.1-96.3c19.8-24.1,55.1-26.2,86-30.6c80.5-11.5,156.4-52.7,209.8-114c16-18.4,35.4-40.6,59.4-36.3&#10;&#9;&#9;&#9;&#9;c11.2,2,20.5,9.7,28.7,17.6c9.1,8.7,18.1,18.9,19.5,31.4c3.9,34-44.5,47.2-62.5,76.2c-16.5,26.6-4.4,61.1-6.5,92.4&#10;&#9;&#9;&#9;&#9;c-2.1,30.5-13.6,60.2-34.5,81.4c-52.4,52.9-56,63.9-121.4-1.1C1114,812.1,1104.6,801.5,1074.7,807.7z" transform="matrix(1, 0, 0, 1, 8.526512829121202e-14, 2.1316282072803006e-14)"/><linearGradient id="SVGID_13_" gradientUnits="userSpaceOnUse" x1="450.3342" y1="-754.3063" x2="450.3342" y2="608.2396">
				<stop offset="0" style="stop-color:#1C1C1C"/>
				<stop offset="1" style="stop-color:#000000"/>
			</linearGradient><path fill="url(#SVGID_13_)" d="M94,254.2c22.4,24.8,35.5,63.6,68.4,69.9c15.8,3,31.8-3,47.7-5.9c49.4-9.1,103.1,14.7,129.6,57.3&#10;&#9;&#9;&#9;&#9;c32,51.5,27.7,126.1,76.7,161.9c26.7,19.5,65.6,20.5,93.3,2.4c27.7-18.1,42.4-54.1,35.3-86.4c-4.4-20-16.3-38.3-17.8-58.7&#10;&#9;&#9;&#9;&#9;c-3.4-46.2,44.9-78.2,88.3-94.4c43.4-16.2,94.3-32.5,111.5-75.5c8-19.9,7.1-42.8,16.9-61.9c21.6-42.1,79.4-44.4,123-62.8&#10;&#9;&#9;&#9;&#9;c40.7-17.1,72.2-51.7,93.6-90.3s33.6-81.6,44.9-124.3c21.3-80.3,39.2-169.9,0.1-243.3c-29.1-54.7-84.5-89.4-137.5-121.6&#10;&#9;&#9;&#9;&#9;c-11.8-7.2-24-14.5-37.6-16.7c-26.2-4.2-51.2,11.3-73.2,26.1c-105.8,71.5-211.8,146.1-332.2,188.7&#10;&#9;&#9;&#9;&#9;c-104.1,36.8-215.1,48.2-323.7,67.8c-71.4,12.9-147.9,32.9-192.7,89.9c-49.7,63.2-44.7,157-7,228c13.7,25.7,30.4,49.7,36.8,78.5&#10;&#9;&#9;&#9;&#9;c5.1,22.8-1.2,40.3,23.4,48.2c17.3,5.6,45.2-8.2,63.7-7.3C51.2,225.1,76.5,234.9,94,254.2z" transform="matrix(1, 0, 0, 1, 8.526512829121202e-14, 2.1316282072803006e-14)"/><linearGradient id="SVGID_14_" gradientUnits="userSpaceOnUse" x1="180.5971" y1="-373.0981" x2="1712.0042" y2="1158.309">
				<stop offset="0" style="stop-color:#1C1C1C"/>
				<stop offset="1" style="stop-color:#000000"/>
			</linearGradient><path fill="url(#SVGID_14_)" d="M464.8,512.7c-9.3,0-18.2-2.7-24.9-7.6c-18.3-13.4-26.1-40.4-35.1-71.7&#10;&#9;&#9;&#9;&#9;c-7.2-25.2-15.5-53.7-31.2-79c-14.7-23.7-36-43.5-61.5-57.3c-25-13.6-53-20.7-80.8-20.7c-9.6,0-19.2,0.9-28.6,2.6&#10;&#9;&#9;&#9;&#9;c-4.9,0.9-9.5,2-13.9,3c-6.8,1.6-13.1,3.1-17.3,3.1c0,0,0,0,0,0c-0.8,0-1.4-0.1-1.7-0.1c-6.2-1.2-15.8-15.6-23.6-27.1&#10;&#9;&#9;&#9;&#9;c-6.4-9.6-13.7-20.5-22.6-30.4c-23.7-26.3-57.9-41.7-96.2-43.5c-1.2-0.1-2.4-0.1-3.6-0.1c-12.2,0-24.1,2.8-34.7,5.3&#10;&#9;&#9;&#9;&#9;c-2.9,0.7-6.1,1.4-9,2.1c-0.5-4.9-1.3-10.6-2.7-16.9c-6.2-27.9-19.4-51.1-31-71.5c-3.4-5.9-6.5-11.5-9.5-17.1&#10;&#9;&#9;&#9;&#9;c-16.1-30.3-24.8-65.1-24.6-98c0.1-23.6,5.1-57.8,27.7-86.6c36.1-45.9,102.3-63.3,168.4-75.2c26.2-4.7,53.1-9.1,79.2-13.3&#10;&#9;&#9;&#9;&#9;c83-13.4,168.7-27.2,250.8-56.2C555.3-285,658.3-354.7,757.9-422.2c7.2-4.9,14.4-9.8,21.6-14.6c11.1-7.5,29.6-20,42-20&#10;&#9;&#9;&#9;&#9;c0.9,0,1.7,0.1,2.6,0.2c6.1,1,15.1,6.5,23.1,11.3c46,28,98.1,59.7,122.9,106.2c32.9,61.7,15.5,142.9-3.5,214.2&#10;&#9;&#9;&#9;&#9;c-10.9,41.1-22.3,80.8-41.3,115.2c-19.3,35-45.6,60.8-74.1,72.8c-10.3,4.3-22.5,7.9-35.3,11.6c-37.6,10.9-84.4,24.4-107.7,69.8&#10;&#9;&#9;&#9;&#9;c-8,15.6-10.9,31-13.4,44.6c-1.5,7.9-2.9,15.4-5,20.7c-9.5,23.7-45.2,36.9-79.6,49.7c-2.9,1.1-5.9,2.2-8.7,3.2&#10;&#9;&#9;&#9;&#9;c-20.8,7.8-50.7,21.8-74.8,44.1c-35.6,32.9-41,67.5-39.3,90.7c1.3,17.9,7.1,32.7,12.2,45.8c2.7,6.8,5.2,13.3,6.4,18.6&#10;&#9;&#9;&#9;&#9;c3.6,16.2-4.2,35.2-18.1,44.3C481.4,510.4,473.3,512.7,464.8,512.7z" transform="matrix(1, 0, 0, 1, 8.526512829121202e-14, 2.1316282072803006e-14)"/><linearGradient id="SVGID_15_" gradientUnits="userSpaceOnUse" x1="-22.4529" y1="102.0192" x2="739.7713" y2="102.0192">
				<stop offset="0" style="stop-color:#1C1C1C"/>
				<stop offset="1" style="stop-color:#000000"/>
			</linearGradient><path fill="url(#SVGID_15_)" d="M281.2,249.1c-19.4,3.1-38.8,10.8-58.1,7c-33.2-6.5-50.1-42.6-64.6-73.2s-52.1-62.8-85.7-58.2&#10;&#9;&#9;&#9;&#9;c-8.5,1.2-4.2,3.1-12.7,3.7c-22.5,1.6-40.4-17.6-54.6-35C-9.4,75.2-25.1,54.1-22.1,30.8C-20.7,20.1-15.4,10.3-9.8,1&#10;&#9;&#9;&#9;&#9;C5.8-25.2,23.8-50,43.8-73c9.1-10.4,19-20.8,31.6-26.6c12.9-6,27.6-6.9,41.8-7.7c84-5.1,167.7-15.1,250.6-29.9&#10;&#9;&#9;&#9;&#9;c75.7-13.5,160-29.4,224.3,12.8c9.1,6,17.8,13.3,22.6,23.1c4.9,10.1,5.3,21.7,8.5,32.4c9.1,30.2,44,50.1,74.6,42.4&#10;&#9;&#9;&#9;&#9;c6.6-1.6,13.1-4.4,19.9-3.9c17.8,1.3,26.4,25,19.8,41.5c-6.6,16.6-22.5,27.3-37.3,37.4c-14.8,10.1-30.2,21.9-35,39.1&#10;&#9;&#9;&#9;&#9;c-5.6,20.1,4.9,42-0.6,62.2c-6,21.9-29,34.7-51,40.3c-22,5.6-45.6,6.6-65.9,16.7c-46.1,22.8-59,80.7-76,129.2&#10;&#9;&#9;&#9;&#9;c-1.8,5.1-3.9,10.4-8.4,13.4c-43.1,27.8-53.1-41.1-76.2-63.7C359.7,258.6,319.8,242.9,281.2,249.1z" transform="matrix(1, 0, 0, 1, 8.526512829121202e-14, 2.1316282072803006e-14)"/><linearGradient id="SVGID_16_" gradientUnits="userSpaceOnUse" x1="349.5327" y1="649.8341" x2="349.5327" y2="78.6413">
				<stop offset="0" style="stop-color:#1C1C1C"/>
				<stop offset="1" style="stop-color:#000000"/>
			</linearGradient><path fill="url(#SVGID_16_)" d="M442.6,302.1c-0.8-1.5-1.6-3-2.2-4.3c-7.2-14-14.7-28.4-26.2-39.7c-31.7-31-73.9-48.9-116-48.9&#10;&#9;&#9;&#9;&#9;c-7.8,0-15.5,0.6-23.1,1.8c-6.8,1.1-13.1,2.5-19.2,3.9c-8.3,1.9-16.1,3.7-21.9,3.7c-1.4,0-2.5-0.1-3.6-0.3&#10;&#9;&#9;&#9;&#9;c-14-2.7-26.7-29.7-37-51.4l-0.2-0.5c-25.1-53.1-61.3-82.3-102-82.3c-3.7,0-7.5,0.3-11.3,0.8c-6.4,0.9-11.9,2.4-16.4,3.6&#10;&#9;&#9;&#9;&#9;c-2.1,0.6-4.9,1.3-6.1,1.5c-1.7-0.4-7.7-3.1-22.2-20.9C29.8,62.3,15,44.2,16.1,35.8c0.5-3.9,5-11.4,7.2-15.1&#10;&#9;&#9;&#9;&#9;C37.6-3.5,54.3-26.5,72.8-47.7c6.3-7.2,13-14.3,18.9-17.1c6.1-2.9,16.4-3.5,27.3-4.2l0.5,0c85.2-5.2,171-15.4,255-30.4l3.5-0.6&#10;&#9;&#9;&#9;&#9;c36.6-6.5,74.4-13.3,109.4-13.3c34.7,0,62.1,6.9,83.6,21c7.5,5,9,7.6,9.1,7.8c0.8,1.6,1.7,6.5,2.4,10.1c0.9,4.9,2,10.5,3.8,16.5&#10;&#9;&#9;&#9;&#9;c12.4,41,52.9,70.9,96.7,71.5c-1.3,0.9-2.6,1.8-3.9,2.7l-0.6,0.4c-14.4,9.9-41.3,28.2-50.4,60.5c-4.9,17.4-3,33.4-1.5,46.1&#10;&#9;&#9;&#9;&#9;c0.7,6,1.6,13.5,0.8,16.3c-0.7,2.7-8.3,9.3-23.3,13.1c-6,1.5-12.7,2.7-19.7,4c-16.6,3-35.4,6.4-53.8,15.5&#10;&#9;&#9;&#9;&#9;C477.1,198.9,457.8,255.9,442.6,302.1z" transform="matrix(1, 0, 0, 1, 8.526512829121202e-14, 2.1316282072803006e-14)"/><linearGradient id="SVGID_17_" gradientUnits="userSpaceOnUse" x1="129.1389" y1="64.3269" x2="501.7993" y2="64.3269">
				<stop offset="0" style="stop-color:#1C1C1C"/>
				<stop offset="1" style="stop-color:#000000"/>
			</linearGradient><path fill="url(#SVGID_17_)" d="M358.2,165.8c-25.3-7.8-53.2-12.7-71.9-31.5c-21.9-22.1-27.3-60.3-55.5-73.6&#10;&#9;&#9;&#9;&#9;c-24.1-11.3-54.7,1.5-78.4-10.7c-21.3-11-28.8-40.4-19.3-62.4c9.5-22,32.3-36.3,55.9-40.5s47.9,0.1,70.9,6.9&#10;&#9;&#9;&#9;&#9;c35,10.3,73.6,26,106,9.3c16.5-8.5,29.7-24.9,48.2-26.4c17.1-1.4,32.1,10.5,45,21.8c11.5,10,24.1,23.2,20.5,38&#10;&#9;&#9;&#9;&#9;c-1.6,6.8-6.6,12.3-9.3,18.8c-8.4,19.8,5.3,42,20.7,57c4.2,4.1,8.7,8.3,10.2,13.9c2.4,8.8-3.7,17.9-11.2,23&#10;&#9;&#9;&#9;&#9;c-7.5,5.1-16.5,7.7-24.4,12.2c-27.9,15.9-20.8,46.3-39.6,64.7C407.4,204.6,379.2,172.3,358.2,165.8z" transform="matrix(1, 0, 0, 1, 8.526512829121202e-14, 2.1316282072803006e-14)"/><linearGradient id="SVGID_18_" gradientUnits="userSpaceOnUse" x1="179.948" y1="-120.4239" x2="403.8677" y2="103.4958">
				<stop offset="0" style="stop-color:#1C1C1C"/>
				<stop offset="1" style="stop-color:#000000"/>
			</linearGradient><path fill="url(#SVGID_18_)" d="M408.7,160.4c-4-2.1-9.2-5.4-12.7-7.6c-9.1-5.8-18.5-11.8-29-15c-4.9-1.5-9.9-2.9-14.7-4.3&#10;&#9;&#9;&#9;&#9;c-18.1-5.1-35.2-10-45-19.8c-5.9-6-10.9-15.5-16.2-25.5c-9.9-18.7-22.1-42-47.7-54c-14.9-7-29.9-7.9-42.7-7.9&#10;&#9;&#9;&#9;&#9;c-3.1,0-6.1,0.1-9,0.1c-2.7,0.1-5.3,0.1-7.9,0.1c-6.4,0-13.6-0.3-17.9-2.5c-6.5-3.3-9.4-16-5.7-24.6&#10;&#9;&#9;&#9;&#9;c4.8-11.2,18.2-20.3,34.1-23.2c4.4-0.8,9.2-1.2,14.2-1.2c12.3,0,26,2.4,43.1,7.4c4,1.2,8.1,2.5,12.4,3.8&#10;&#9;&#9;&#9;&#9;c21.2,6.6,45.2,14,69.6,14c16.7,0,32.2-3.6,45.8-10.6c7.9-4.1,14.7-9.1,20.6-13.5c6-4.4,12.9-9.5,16.5-9.8c0.1,0,0.2,0,0.3,0&#10;&#9;&#9;&#9;&#9;c6,0,18.3,10.7,22.9,14.7c6.1,5.3,8.9,8.6,10.2,10.5c-0.3,0.5-0.6,1.1-0.9,1.5c-1.8,2.9-3.9,6.6-5.8,11.1&#10;&#9;&#9;&#9;&#9;c-7,16.6-6.5,35.1,1.5,53.6c5.6,12.8,13.9,23.6,21.1,31.3c-0.5,0.2-0.9,0.4-1.4,0.6c-4,1.8-8.6,3.8-13.4,6.5&#10;&#9;&#9;&#9;&#9;c-25.8,14.7-33.4,37.7-38.3,53C411.4,153.3,410.1,157.3,408.7,160.4z" transform="matrix(1, 0, 0, 1, 8.526512829121202e-14, 2.1316282072803006e-14)"/><linearGradient id="SVGID_19_" gradientUnits="userSpaceOnUse" x1="1030.693" y1="-187.2496" x2="1030.693" y2="798.3295">
				<stop offset="0" style="stop-color:#1C1C1C"/>
				<stop offset="1" style="stop-color:#000000"/>
			</linearGradient><path fill="url(#SVGID_19_)" d="M671,522.3c-21.7,0-39.2-9.7-48-26.5c-12.2-23.2-4.2-52.1,21.9-79.4l1.8-1.9&#10;&#9;&#9;&#9;&#9;c11.7-12.2,23.8-24.8,22.7-35.9c-0.3-2.7-1.5-6.3-2.7-10.1c-2-6.1-4.4-13-4.8-21.2c-1.7-32,25.7-58.1,71.6-68.1&#10;&#9;&#9;&#9;&#9;c23.1-5.1,46.1-11.2,50.1-25.2c0.9-3.3,1-7.9,1.1-12.9c0-3.5,0.1-7.5,0.5-11.6c2.2-24.2,13.9-45.5,35.6-65&#10;&#9;&#9;&#9;&#9;c17.2-15.5,38.1-27.5,58.3-39.1c6-3.4,11.6-6.7,17.1-10c36.8-22.2,69.2-53.5,93.5-90.4c2-3.1,14.1-25.2,26.1-50.3&#10;&#9;&#9;&#9;&#9;c21-44.1,21.5-55.1,21.5-55.6c-0.1,2.5,1.9,8.7,8.5,12.2l18.9-35.3c19.5,10.4,42.1,16,65.4,16c29,0,57.4-8.6,80-24.3&#10;&#9;&#9;&#9;&#9;c9.2-6.4,17.8-14,27-22.1c6.8-6,13.9-12.3,21.4-18.2c18.3-14.3,38.5-25.8,60.2-34.3c16.5-6.5,31-9.6,44.3-9.6&#10;&#9;&#9;&#9;&#9;c6.5,0,12.8,0.7,18.7,2.2c19.6,4.9,36.6,18.1,48,37.4c10,17,15.1,37.3,14.3,57.3c-1.5,37.1-19.8,70.7-34.5,97.7&#10;&#9;&#9;&#9;&#9;c-24.4,45-54.8,100.9-107.4,131.6c-10.7,6.2-21.7,11.1-32.3,15.8c-11.6,5.1-22.6,10-32.4,16.2c-29.6,19-49,51.4-69.5,85.7&#10;&#9;&#9;&#9;&#9;c-24.9,41.6-50.6,84.7-97.2,106c-27.9,12.7-57,14.4-81.7,14.4c-8.8,0-17.7-0.2-26.3-0.5c-8.4-0.2-17-0.5-25.4-0.5&#10;&#9;&#9;&#9;&#9;c-11.9,0-21.5,0.5-30.3,1.5c-38.3,4.5-74.5,21.8-102.1,48.7c-10.2,10-19.4,21.4-29.2,33.4c-16.9,20.9-34.4,42.5-58.7,58&#10;&#9;&#9;&#9;&#9;C703.2,517.3,686.5,522.3,671,522.3C671,522.3,671,522.3,671,522.3z" transform="matrix(1, 0, 0, 1, 8.526512829121202e-14, 2.1316282072803006e-14)"/><linearGradient id="SVGID_20_" gradientUnits="userSpaceOnUse" x1="699.3638" y1="136.2443" x2="1423.942" y2="136.2443">
				<stop offset="0" style="stop-color:#1C1C1C"/>
				<stop offset="1" style="stop-color:#000000"/>
			</linearGradient><path fill="url(#SVGID_20_)" d="M947.1,108.3c-38.8,23.4-89.2,45.9-93.4,91c-0.8,8.6,0.3,17.5-2,25.9&#10;&#9;&#9;&#9;&#9;c-6.7,23.7-35.9,30.9-59.9,36.1c-24,5.2-52.8,19.2-51.5,43.8c0.5,9.6,5.9,18.4,6.9,28c1.9,19.4-14.1,35.2-27.6,49.3&#10;&#9;&#9;&#9;&#9;c-13.5,14.1-26.3,34.6-17.2,51.8c10.5,20.1,41.1,17.1,60.3,4.9c31.9-20.3,50.9-55.4,78-81.8c28.2-27.5,65.6-45.4,104.8-50&#10;&#9;&#9;&#9;&#9;c48.7-5.7,100.8,8.1,145.3-12.3c71.2-32.5,85.4-133.1,151.3-175.3c18.9-12.1,40.9-18.6,60.3-29.9c42.8-25,68.4-70.6,92-114.2&#10;&#9;&#9;&#9;&#9;c14-25.7,28.3-52.7,29.5-81.9s-15-61.5-43.4-68.6c-15.6-3.9-32,0.2-46.9,6.1c-18.2,7.1-35.4,16.9-50.8,29&#10;&#9;&#9;&#9;&#9;c-15.5,12.1-29.3,26.4-45.4,37.7c-44.2,30.7-105.7,34.2-153.2,8.8c12.4,6.6-38.9,103.4-45,112.7&#10;&#9;&#9;&#9;&#9;C1015.5,55.3,984,86.1,947.1,108.3z" transform="matrix(1, 0, 0, 1, 8.526512829121202e-14, 2.1316282072803006e-14)"/><linearGradient id="SVGID_21_" gradientUnits="userSpaceOnUse" x1="1021.9845" y1="574.8266" x2="1021.9845" y2="94.3849">
				<stop offset="0" style="stop-color:#1C1C1C"/>
				<stop offset="1" style="stop-color:#000000"/>
			</linearGradient><path fill="url(#SVGID_21_)" d="M911.8,164.9c-13.7,7.3-29,14.7-35.5,28.9c-8.5,18.5,1.6,41.1-4.9,60.4&#10;&#9;&#9;&#9;&#9;c-8,23.8-36.2,32.4-60,40.5c-23.7,8.1-50.6,25.5-47.6,50.4c0.7,5.8,3,11.6,1.5,17.2c-3.8,13.4-27.9,19.5-22.2,32.3&#10;&#9;&#9;&#9;&#9;c11.9,7,27.7,2,38-7.2c10.3-9.2,16.6-21.9,24.1-33.4c26.4-40.7,70.4-69.6,118.2-77.8c16.5-2.8,33.6-3.3,49.1-9.6&#10;&#9;&#9;&#9;&#9;c25.9-10.5,43-35.2,57-59.3c11-19,21.6-39.1,38.7-52.7c10.4-8.3,22.6-13.8,34.6-19.3c45.8-21,91.4-44.2,128.8-78.1&#10;&#9;&#9;&#9;&#9;s66.2-79.7,69.9-130c0.7-9.5,0.3-19.7-5-27.6c-7.3-10.8-21.8-14.1-34.9-14.6c-72.5-2.8-157.9,56-194.7,114.9&#10;&#9;&#9;&#9;&#9;C1024.3,67.9,985.5,125.7,911.8,164.9z" transform="matrix(1, 0, 0, 1, 8.526512829121202e-14, 2.1316282072803006e-14)"/><linearGradient id="SVGID_22_" gradientUnits="userSpaceOnUse" x1="513.2604" y1="214.7906" x2="513.2604" y2="753.4844">
				<stop offset="0" style="stop-color:#1C1C1C"/>
				<stop offset="1" style="stop-color:#000000"/>
			</linearGradient><path fill="url(#SVGID_22_)" d="M466.8,602.1c57.4-4.9,95-67.3,151.4-79.1c9.7-2,22.5-0.8,25.9,8.5c1.4,4,0.6,8.4,1.1,12.6&#10;&#9;&#9;&#9;&#9;c2,16.9,22.3,23.8,39,27.1c5.7,7.9-5.2,17.2-14.5,20c-20.3,6-41.9,6.7-62.3,12.4s-40.9,18.2-47.4,38.3&#10;&#9;&#9;&#9;&#9;c-5.4,16.4-1.4,37-13.7,49.1c-11.1,10.8-29.6,8.4-43.6,1.9c-13.9-6.5-26.3-16.2-35.9-28.1c-8.1-10.1-14.4-21.9-24.6-29.9&#10;&#9;&#9;&#9;&#9;c-11.3-8.8-131.2-34.2-94.4-72.8C362.5,546.6,441.1,604.3,466.8,602.1z" transform="matrix(1, 0, 0, 1, 8.526512829121202e-14, 2.1316282072803006e-14)"/><g transform="matrix(1, 0, 0, 1, 8.526512829121202e-14, 2.1316282072803006e-14)">
				<path fill="#606060" d="M273.1,1139c-1.2,0-2.4,0-3.6-0.1c-33.4-2.1-56.4-34.2-63.6-63.1c-0.4-1.7-0.8-3.5-1.2-5.3&#10;&#9;&#9;&#9;&#9;&#9;c-1.6-7.1-3.3-14.4-7.3-20.6c-3.6-5.6-18.5-23.2-57.9-14.6c-4.6,1-9.4,2.2-14,3.4c-16.2,4.2-33,8.5-49.3,4.5&#10;&#9;&#9;&#9;&#9;&#9;c-20.5-5.1-37.5-23.8-43.3-47.5c-4.2-17.3-3.4-31.2-2.6-43.4c1.5-24.7,2.4-39.7-42.3-53.8c-49-15.5-77.2-38.6-83.7-68.6&#10;&#9;&#9;&#9;&#9;&#9;c-6.3-28.9,9.3-56,24.3-82.2c13.9-24.2,28.3-49.2,26-76.1c-2.2-25.7-19.1-46.9-35.5-67.3c-4.9-6.2-10-12.5-14.6-18.9&#10;&#9;&#9;&#9;&#9;&#9;c-38.8-53.9-50-126.6-29.1-189.7c8.5-25.6,21-43.1,37.2-52c33.4-18.4,73.4,0.8,108,22l95.9,58.7c13.5,8.2,27.8,16,42.2,13.1&#10;&#9;&#9;&#9;&#9;&#9;c7.4-1.5,13.9-5.8,20.3-10c2.3-1.5,4.6-3,6.9-4.4c28.5-16.9,67.1-15.1,93.9,4.4c26.8,19.5,40.4,55.6,33.2,87.9&#10;&#9;&#9;&#9;&#9;&#9;c-1.4,6-3.4,12-5.3,17.7c-2.6,7.5-5.2,15.2-6.3,23.1c-3.6,24.9,8.1,53,31.2,75.3c16.2,15.6,36,27.4,55.1,38.7c4.9,2.9,10,6,15,9&#10;&#9;&#9;&#9;&#9;&#9;c61,37.5,116.2,88.6,159.5,147.8c43.3,59.2,75.4,127.2,92.8,196.7c5.5,21.9,9.9,49.5-4.4,69.7c-21.3,30-67.7,23.5-101.1,8.8&#10;&#9;&#9;&#9;&#9;&#9;c-20.1-8.9-39.5-19.6-57.7-32c-2.2-1.5-4.5-3.1-6.8-4.7c-17.1-11.9-34.9-24.2-55.4-25.1c-32.1-1.5-56.2,24.3-79.4,49.3&#10;&#9;&#9;&#9;&#9;&#9;C327.5,1113.9,304.1,1139,273.1,1139z M159.1,1032.1c4.2,0,8.7,0.3,13.1,1.2c11.9,2.3,20.6,7.7,26.1,16.1&#10;&#9;&#9;&#9;&#9;&#9;c4.1,6.3,5.7,13.7,7.4,20.9c0.4,1.8,0.8,3.5,1.2,5.3c7.1,28.6,29.8,60.3,62.7,62.4c32.3,2,56.5-23.9,79.9-49&#10;&#9;&#9;&#9;&#9;&#9;c23.4-25.1,47.6-51.1,80.2-49.6c20.8,1,38.7,13.3,55.9,25.3c2.3,1.6,4.5,3.1,6.7,4.7c18.1,12.3,37.5,23.1,57.5,31.9&#10;&#9;&#9;&#9;&#9;&#9;c33,14.5,78.9,21,99.9-8.5c14-19.8,9.6-47.2,4.2-68.9c-17.3-69.4-49.3-137.2-92.6-196.3C518.1,768.4,463,717.4,402.1,680&#10;&#9;&#9;&#9;&#9;&#9;c-4.9-3-10-6.1-15-9c-19.2-11.4-39-23.2-55.3-38.9c-23.3-22.5-35.1-50.9-31.5-76.1c1.2-8,3.8-15.8,6.4-23.3&#10;&#9;&#9;&#9;&#9;&#9;c2-5.7,4-11.6,5.3-17.6c7.2-31.9-6.3-67.6-32.8-86.9c-26.5-19.2-64.6-21-92.8-4.3c-2.3,1.4-4.7,2.9-6.9,4.4&#10;&#9;&#9;&#9;&#9;&#9;c-6.4,4.2-13,8.6-20.6,10.1c-14.7,3-29.3-4.8-42.9-13.2l-95.9-58.7c-34.4-21.1-74-40.1-107-22c-16,8.8-28.3,26.1-36.8,51.5&#10;&#9;&#9;&#9;&#9;&#9;c-20.8,62.8-9.7,135.1,28.9,188.8c4.6,6.4,9.7,12.7,14.6,18.9c16.4,20.6,33.5,41.8,35.7,67.9c2.3,27.2-12.1,52.3-26.1,76.7&#10;&#9;&#9;&#9;&#9;&#9;c-15.6,27.2-30.4,52.9-24.2,81.5c6.4,29.6,34.4,52.4,83,67.8c45.5,14.4,44.5,30.5,43,54.8c-0.7,12.2-1.6,26,2.6,43.1&#10;&#9;&#9;&#9;&#9;&#9;c5.7,23.4,22.4,41.8,42.5,46.8c16,4,32.7-0.3,48.8-4.5c4.6-1.2,9.3-2.4,14-3.4C144.5,1033.2,151.5,1032.1,159.1,1032.1z"/>
				<path fill="#606060" d="M273.1,1109c-0.6,0-1.2,0-1.8-0.1c-9.1-0.6-16.4-6.4-20.9-11.3c-7.1-7.6-12.7-18.2-15.5-29.2&#10;&#9;&#9;&#9;&#9;&#9;c-0.4-1.5-0.7-3-1-4.5l-0.1-0.2c-2-8.7-4.5-19.6-11.3-30.2c-12.7-19.7-35.3-30.5-63.5-30.5c-8.5,0-17.2,1-26,2.9&#10;&#9;&#9;&#9;&#9;&#9;c-5.2,1.1-10.2,2.4-15.1,3.7c-10.3,2.7-20,5.2-27.9,5.2c-2.5,0-4.7-0.2-6.7-0.7c-9.5-2.4-18.3-12.9-21.4-25.5&#10;&#9;&#9;&#9;&#9;&#9;c-3.1-12.9-2.5-23.4-1.8-34.5c0.9-14.7,1.9-31.5-8-48c-9.6-16-26.6-27.2-55.2-36.3c-26.1-8.3-58.4-23-63.4-46.4&#10;&#9;&#9;&#9;&#9;&#9;c-3.8-17.6,7.7-37.7,21-60.9c15.4-26.9,32.9-57.3,29.8-93.6c-3-34.8-23.7-60.7-41.9-83.5c-4.9-6.1-9.5-11.9-13.7-17.7&#10;&#9;&#9;&#9;&#9;&#9;c-33.3-46.3-42.9-108.6-24.9-162.7c4.1-12.5,11.5-28.8,23.2-35.2c4.4-2.4,9.3-3.6,15-3.6c19.9,0,45.4,14.2,62.9,24.9L101,450&#10;&#9;&#9;&#9;&#9;&#9;c14.3,8.8,31.3,18.1,51.4,18.1c4.2,0,8.5-0.4,12.5-1.3c13-2.7,22.8-9.1,30.6-14.3c2.1-1.4,4-2.6,5.8-3.7&#10;&#9;&#9;&#9;&#9;&#9;c8.1-4.8,17.8-7.4,28.1-7.4c12.1,0,23.8,3.6,32.9,10.2c17.1,12.4,26.2,36.4,21.5,57.1c-1,4.4-2.7,9.4-4.5,14.6&#10;&#9;&#9;&#9;&#9;&#9;c-2.9,8.4-6.1,17.8-7.6,28.5c-5,34.9,9.6,71.8,40.1,101.2c18.7,18,40,30.7,60.6,42.9c5.1,3,9.9,5.9,14.6,8.8&#10;&#9;&#9;&#9;&#9;&#9;c57.7,35.5,109.9,83.9,151,140c41.1,56.1,71.4,120.5,87.9,186.2c3.6,14.4,7.5,34.8,0.2,45.1c-1.5,2.1-6.1,8.6-23,8.6&#10;&#9;&#9;&#9;&#9;&#9;c-12.2,0-27.3-3.6-41.5-9.9c-18.4-8.1-36.2-18-52.9-29.3c-2.1-1.4-4.2-2.9-6.3-4.4l-0.2-0.1c-18.7-13-42-29.1-71.1-30.5&#10;&#9;&#9;&#9;&#9;&#9;c-1.4-0.1-2.7-0.1-4-0.1c-43.8,0-73,31.3-98.7,58.9C309.1,1089.6,291,1109,273.1,1109z M159.1,1002.1c28.5,0,51.4,11,64.3,31&#10;&#9;&#9;&#9;&#9;&#9;c6.9,10.7,9.4,21.7,11.4,30.5l0.1,0.2c0.3,1.5,0.7,3,1,4.4c2.7,10.8,8.2,21.3,15.2,28.7c4.4,4.7,11.5,10.4,20.2,11&#10;&#9;&#9;&#9;&#9;&#9;c0.6,0,1.2,0.1,1.7,0.1c17.5,0,35.4-19.2,54.4-39.6c25.9-27.7,55.2-59.2,99.5-59.2c1.3,0,2.7,0,4.1,0.1&#10;&#9;&#9;&#9;&#9;&#9;c29.4,1.4,52.8,17.6,71.6,30.6l0.2,0.1c2.1,1.5,4.2,2.9,6.3,4.4c16.6,11.3,34.4,21.1,52.7,29.2c14.1,6.2,29.1,9.8,41.1,9.8&#10;&#9;&#9;&#9;&#9;&#9;c16.4,0,20.7-6.1,22.1-8.2c7.1-10,3.1-30-0.4-44.2c-16.4-65.6-46.7-129.9-87.7-185.9S444,741,386.4,705.5&#10;&#9;&#9;&#9;&#9;&#9;c-4.7-2.9-9.5-5.7-14.5-8.7c-20.7-12.3-42.1-25-60.9-43.1c-30.7-29.6-45.5-66.8-40.4-102c1.6-10.8,4.8-20.3,7.7-28.7&#10;&#9;&#9;&#9;&#9;&#9;c1.8-5.2,3.4-10.1,4.4-14.5c4.6-20.3-4.3-43.8-21.1-56c-8.9-6.5-20.4-10-32.3-10c-10,0-19.6,2.5-27.6,7.2&#10;&#9;&#9;&#9;&#9;&#9;c-1.7,1-3.7,2.3-5.7,3.6c-8,5.2-17.8,11.7-31,14.5c-4.2,0.9-8.4,1.3-12.8,1.3c-20.3,0-37.5-9.4-51.9-18.3L4.5,392.2&#10;&#9;&#9;&#9;&#9;&#9;c-17.4-10.6-42.8-24.8-62.4-24.8c-5.5,0-10.3,1.1-14.6,3.5c-11.4,6.2-18.6,22.3-22.7,34.6c-17.8,53.8-8.3,115.8,24.8,161.8&#10;&#9;&#9;&#9;&#9;&#9;c4.1,5.7,8.8,11.5,13.7,17.6c18.3,22.9,39.1,48.9,42.1,84.1c3.1,36.5-14.5,67.1-30,94.1c-13.2,23-24.6,42.9-20.9,60.1&#10;&#9;&#9;&#9;&#9;&#9;c5,22.8,36.9,37.4,62.7,45.6c28.9,9.1,46.1,20.5,55.8,36.7c10.1,16.8,9,33.7,8.1,48.6c-0.7,11-1.3,21.5,1.8,34.2&#10;&#9;&#9;&#9;&#9;&#9;c3,12.3,11.5,22.5,20.6,24.8c1.9,0.5,4,0.7,6.4,0.7c7.8,0,17.5-2.5,27.7-5.1c4.9-1.3,9.9-2.6,15.1-3.7&#10;&#9;&#9;&#9;&#9;&#9;C141.7,1003.1,150.6,1002.1,159.1,1002.1z"/>
				<path fill="#606060" d="M297.8,1041.5c-5.8,0-11.6-0.8-17.4-2.8c-18.9-6.3-32.1-22.7-44.7-38.6c-13.3-16.7-27.1-33.9-47.4-38.7&#10;&#9;&#9;&#9;&#9;&#9;c-11.8-2.8-25.3-1.4-38.3,0c-21.9,2.3-42.6,4.4-53.6-12.8c-6.9-10.8-5.2-23.3-3.5-36.5c1.1-8.2,2.2-16.8,1.1-24.8&#10;&#9;&#9;&#9;&#9;&#9;c-3.5-24.2-25.8-39.1-47.4-53.6c-22.3-15-45.4-30.4-47.1-56c-0.8-11.5,3.3-22.6,7.2-33.4l0.1-0.4c11.4-31.5,22.8-68,12.6-101.6&#10;&#9;&#9;&#9;&#9;&#9;c-5.2-17.2-15.7-32.3-25.8-47c-4.4-6.4-9-12.9-13-19.6c-9.9-16.2-24.4-47.3-10.4-73.8c6.5-12.4,21.8-23.3,37.2-19.3&#10;&#9;&#9;&#9;&#9;&#9;c9.4,2.5,16.4,9.8,23.2,16.8c2.1,2.2,4.3,4.5,6.6,6.6c12.8,12,29.5,19.5,46.9,21.1c14.2,1.3,29.2-1.1,43.7-3.5&#10;&#9;&#9;&#9;&#9;&#9;c24.6-4,47.8-7.8,67.7,5c23.4,15.1,29,45.7,32.7,75.8c9.6,77.9,25.2,158.2,73.8,217.9c31.5,38.6,74.2,65.2,115.5,90.9&#10;&#9;&#9;&#9;&#9;&#9;c6.4,4,13.1,8.1,19.6,12.3c4.1,2.6,9.7,5.7,16.3,9.2c19.2,10.4,45.6,24.8,52,38.7c4.9,10.6,4.3,22.4-1.5,31.4&#10;&#9;&#9;&#9;&#9;&#9;c-5.7,8.8-15.7,13.9-27.6,13.9c-0.1,0-0.2,0-0.2,0c-10.9-0.1-21.5-3.4-31.8-6.7c-9.1-2.9-18.5-5.8-28-6.5&#10;&#9;&#9;&#9;&#9;&#9;c-21.6-1.5-42.5,8.5-62.8,18.2C334.4,1032.9,316.3,1041.5,297.8,1041.5z M172.6,958.9c5.5,0,10.8,0.4,15.9,1.6&#10;&#9;&#9;&#9;&#9;&#9;c20.7,4.9,34.5,22.2,48,39.1c12.6,15.8,25.6,32.1,44.3,38.3c24.3,8,47.6-3.1,72.3-14.9c20.4-9.7,41.4-19.8,63.3-18.3&#10;&#9;&#9;&#9;&#9;&#9;c9.7,0.7,19.1,3.7,28.2,6.6c10.2,3.2,20.7,6.6,31.5,6.6c0.1,0,0.2,0,0.2,0c11.7,0,21.2-4.8,26.8-13.4c5.6-8.8,6.2-20.2,1.4-30.5&#10;&#9;&#9;&#9;&#9;&#9;c-6.3-13.6-32.4-27.8-51.5-38.2c-6.5-3.6-12.2-6.6-16.3-9.2c-6.5-4.1-13.1-8.2-19.6-12.3c-41.4-25.8-84.2-52.4-115.8-91.1&#10;&#9;&#9;&#9;&#9;&#9;c-48.8-59.9-64.4-140.4-74.1-218.4c-3.7-29.9-9.2-60.3-32.2-75.1c-19.6-12.6-42.6-8.8-67-4.9c-14.6,2.4-29.6,4.8-43.9,3.5&#10;&#9;&#9;&#9;&#9;&#9;c-17.7-1.6-34.6-9.2-47.5-21.3c-2.3-2.1-4.5-4.4-6.6-6.7c-6.7-6.9-13.5-14.1-22.7-16.5c-11.1-2.9-27.6,2.7-36,18.8&#10;&#9;&#9;&#9;&#9;&#9;c-4.7,9-13.2,34.1,10.4,72.8c4.1,6.6,8.6,13.2,13,19.6c10.2,14.7,20.7,29.9,25.9,47.2c10.2,33.9-1.2,70.6-12.7,102.3l-0.1,0.4&#10;&#9;&#9;&#9;&#9;&#9;c-3.9,10.7-7.9,21.7-7.1,33c1.7,25.1,24.6,40.4,46.7,55.2c21.8,14.6,44.3,29.7,47.8,54.3c1.2,8.1,0,16.7-1.1,25.1&#10;&#9;&#9;&#9;&#9;&#9;c-1.7,13.1-3.4,25.4,3.3,35.9c10.7,16.7,31.1,14.6,52.7,12.3C157.4,959.7,165.1,958.9,172.6,958.9z"/>
				<path fill="#606060" d="M301.5,935.4c-8.3,0-16.8-1-25.1-3c-18.5-4.4-35.1-13.4-48.2-26c-5.5-5.3-10.5-11.3-15.4-17.2&#10;&#9;&#9;&#9;&#9;&#9;c-9.4-11.2-19.1-22.8-32.2-29.3c-6.1-3-13.1-5.1-19.9-7.1c-14.1-4.2-28.7-8.5-35-21.6c-5.5-11.5-1.8-23.7,2.1-36.5&#10;&#9;&#9;&#9;&#9;&#9;c2.7-8.7,5.4-17.7,5-26.4c-0.6-13.7-8.3-24.9-16.5-36.7c-6.3-9.1-12.8-18.6-15.7-29.2c-5.8-21.3,5.8-46.3,25.8-55.6&#10;&#9;&#9;&#9;&#9;&#9;c6.4-3,12.7-4,18.1-2.9c7.1,1.4,12.9,6.3,18,10.5c20.8,17.4,44.3,37.1,54.7,64.5c6,15.9,7,33.3,7.9,50.1&#10;&#9;&#9;&#9;&#9;&#9;c0.9,16.7,1.9,33.9,7.8,49.6c13.3,35.4,51.8,62.1,82.1,71.8c1.1,0.4,2.4,0.8,3.7,1.2c14.7,4.6,39.3,12.4,39.2,22.4&#10;&#9;&#9;&#9;&#9;&#9;c0,6-8.8,11.7-26.8,17.2C321.6,933.9,311.6,935.4,301.5,935.4z M140.1,644.3c-4.2,0-8.7,1.1-13.3,3.3&#10;&#9;&#9;&#9;&#9;&#9;c-19.6,9.2-30.9,33.6-25.3,54.4c2.8,10.5,9.3,19.9,15.6,28.9c7.9,11.4,16.1,23.3,16.7,37.2c0.4,8.9-2.4,18-5.1,26.8&#10;&#9;&#9;&#9;&#9;&#9;c-3.9,12.6-7.6,24.6-2.2,35.8c6.1,12.7,19.8,16.8,34.4,21.1c6.8,2,13.9,4.1,20.1,7.2c13.3,6.6,23.1,18.3,32.5,29.6&#10;&#9;&#9;&#9;&#9;&#9;c4.9,5.8,9.9,11.8,15.4,17.1c19.1,18.4,46.1,28.6,72.9,28.6c9.9,0,19.7-1.4,29.1-4.3c17.3-5.3,26.1-10.8,26.1-16.2&#10;&#9;&#9;&#9;&#9;&#9;c0-9.3-25.1-17.2-38.5-21.4c-1.3-0.4-2.6-0.8-3.7-1.2c-17.2-5.5-34.6-15.3-49.2-27.6c-16-13.4-27.5-28.9-33.5-44.9&#10;&#9;&#9;&#9;&#9;&#9;c-5.9-15.8-6.9-33.1-7.8-49.9c-0.9-16.7-1.9-34-7.9-49.8c-10.2-27.2-33.7-46.8-54.4-64.1c-5-4.2-10.7-9-17.6-10.3&#10;&#9;&#9;&#9;&#9;&#9;C142.9,644.5,141.5,644.3,140.1,644.3z"/>
			</g><path fill="#606060" d="M1250.8,1185.4c-23.6,0-46.3-4.4-66.8-13.3c-22.3-9.6-42.7-24.6-62.5-39.1&#10;&#9;&#9;&#9;&#9;c-31.6-23.2-61.5-45.2-98.8-47.4c-30.4-1.8-60.6,10.9-84.9,21.1l-0.5,0.2c-34.3,14.5-69.8,29.4-107.1,29.4c-0.3,0-0.6,0-0.9,0&#10;&#9;&#9;&#9;&#9;c-40.2-0.3-83.7-21.8-85.1-61.4c-0.7-18.8,1.4-36.4,3.4-53.4c3.8-32.4,7.5-62.9-7.6-98.5c-17.8-42.1-52.4-74-85.8-104.8&#10;&#9;&#9;&#9;&#9;c-15.9-14.7-32.3-29.8-46.7-45.9c-9.2-10.2-19.2-22.6-24.5-37.3c-6.8-19.2-4.3-40.8,7.1-60.7c15-26.2,42.5-46,71.8-51.6&#10;&#9;&#9;&#9;&#9;c10.4-2,21.2-2.8,31.7-3.5c17.5-1.2,35.6-2.5,51.7-9.6c30.2-13.3,47.9-43.4,64.9-72.6c1.6-2.8,3.3-5.6,4.9-8.4&#10;&#9;&#9;&#9;&#9;c19.6-33,42.3-64.3,67.5-93.2c9.2-10.5,20.2-21.9,34.5-25.2c19.4-4.4,36.9,6.9,53.9,17.8c7.6,4.9,15.5,10,23.5,13.6&#10;&#9;&#9;&#9;&#9;c29.6,13.5,77.8,10,118.9-28.1c29.1-26.9,47.9-63.1,66.1-98.2c1.7-3.3,3.4-6.5,5.1-9.8c9.7-18.5,20.4-38.1,33.5-56.2&#10;&#9;&#9;&#9;&#9;c14.2-19.7,29.1-34.6,45.5-45.7c22.4-15.2,51.1-25.3,87.9-31c37.8-5.9,67.2-4.4,92.3,4.7c15.4,5.6,29.7,14.3,43.4,22.7&#10;&#9;&#9;&#9;&#9;c9,5.5,18.2,11.2,27.7,15.9c13.5,6.7,27.9,11.9,41.9,16.9c15.9,5.7,32.4,11.5,47.5,19.8c48.5,26.5,81.8,79.3,84.7,134.5&#10;&#9;&#9;&#9;&#9;c1.9,36.2-7.7,73.2-29.5,113.1c-19.6,36-46.9,70.2-70.9,99.4c-55.2,67.2-104.5,134-101.1,211.5c1,22.1,6.5,44.1,11.9,65.4&#10;&#9;&#9;&#9;&#9;c6.2,24.6,12.6,50,12,75.6c-0.6,27-9,54.4-24.8,81.7c-13.3,22.9-32,45.8-55.5,67.8c-37.3,35-75.7,59.4-114.1,72.3&#10;&#9;&#9;&#9;&#9;C1295,1181.7,1272.5,1185.4,1250.8,1185.4z M1016.7,1084.4c2,0,4,0.1,6,0.2c37.6,2.3,69,25.3,99.4,47.6&#10;&#9;&#9;&#9;&#9;c19.7,14.5,40.1,29.5,62.3,39c39.2,16.9,86.3,17.6,132.5,2c38.3-12.9,76.6-37.2,113.7-72.1c23.4-22,42-44.8,55.3-67.6&#10;&#9;&#9;&#9;&#9;c15.8-27.1,24.1-54.4,24.7-81.2c0.6-25.5-5.8-50.9-12-75.3c-5.4-21.3-10.9-43.4-11.9-65.6c-3.5-77.9,45.9-144.8,101.3-212.2&#10;&#9;&#9;&#9;&#9;c24-29.2,51.2-63.3,70.8-99.2c21.7-39.8,31.3-76.6,29.4-112.6c-2.9-54.9-36-107.4-84.2-133.7c-15-8.2-31.5-14.1-47.4-19.7&#10;&#9;&#9;&#9;&#9;c-14-5-28.5-10.2-42-16.9c-9.6-4.8-18.8-10.5-27.8-16c-13.7-8.4-27.9-17.1-43.2-22.6c-24.9-9-54.1-10.5-91.8-4.7&#10;&#9;&#9;&#9;&#9;c-36.6,5.7-65.2,15.8-87.5,30.8c-19.1,12.9-42.5,32.5-78.7,101.6c-1.7,3.2-3.4,6.5-5.1,9.8c-18.2,35.1-37.1,71.4-66.3,98.4&#10;&#9;&#9;&#9;&#9;c-29.8,27.7-78.5,47.1-120,28.2c-8.1-3.7-16-8.8-23.6-13.7c-17.6-11.3-34.2-22-53.2-17.7c-14.1,3.2-24.9,14.5-34,24.9&#10;&#9;&#9;&#9;&#9;c-25.2,28.8-47.9,60.1-67.4,93c-1.6,2.8-3.3,5.6-4.9,8.4c-17.1,29.3-34.9,59.6-65.4,73c-16.3,7.2-34.5,8.5-52,9.7&#10;&#9;&#9;&#9;&#9;c-10.4,0.7-21.2,1.5-31.6,3.5c-29,5.6-56.3,25.2-71.1,51.1c-11.3,19.7-13.8,41-7,59.9c5.2,14.6,15.2,26.9,24.3,37&#10;&#9;&#9;&#9;&#9;c14.5,16.1,30.8,31.2,46.7,45.8c33.5,30.9,68.1,62.9,86,105.2c15.2,35.8,11.5,66.5,7.7,99c-2,17-4.1,34.5-3.4,53.3&#10;&#9;&#9;&#9;&#9;c1.4,38.9,44.4,60.1,84.1,60.4c0.3,0,0.6,0,0.9,0c37.1,0,72.5-14.9,106.7-29.3l0.5-0.2C960.2,1096.2,988.2,1084.4,1016.7,1084.4z&#10;&#9;&#9;&#9;&#9;" transform="matrix(1, 0, 0, 1, 8.526512829121202e-14, 2.1316282072803006e-14)"/><path fill="#606060" d="M1250.8,1155.3L1250.8,1155.3c-19.9,0-38.3-3.6-54.9-10.7c-19.2-8.2-37.3-21.6-56.6-35.7&#10;&#9;&#9;&#9;&#9;c-68.6-50.4-93.1-51.9-114.8-53.2c-2.6-0.2-5.3-0.2-7.9-0.2c-34.2,0-65.4,13.1-90.4,23.7l-0.5,0.2c-33,13.9-64.2,27-95.5,27&#10;&#9;&#9;&#9;&#9;l-0.7,0c-21.8-0.1-54.5-10.5-55.3-32.4c-0.6-16.5,1.3-32.2,3.2-48.8c3.9-33.2,8.4-70.8-9.8-113.7c-20.3-48-57.3-82.2-93-115.2&#10;&#9;&#9;&#9;&#9;c-16.1-14.8-31.2-28.9-44.8-43.9c-7.2-8-15-17.5-18.5-27.3c-4.9-13.9-0.1-27.1,4.9-35.8c10.6-18.5,30.8-33.1,51.4-37&#10;&#9;&#9;&#9;&#9;c8.6-1.7,18.1-2.3,28.1-3c19.1-1.3,40.8-2.9,61.7-12.1c39.1-17.2,60.2-53.2,78.7-84.9c1.6-2.8,3.2-5.5,4.8-8.2&#10;&#9;&#9;&#9;&#9;c18.6-31.4,40.3-61.2,64.3-88.7c4.1-4.7,12.6-14.4,18.6-15.7c0.7-0.2,1.4-0.2,2.2-0.2c7.1,0,18.2,7.1,28.9,14&#10;&#9;&#9;&#9;&#9;c8.5,5.5,17.3,11.1,27.3,15.7c14.7,6.7,30.7,10.1,47.5,10.1c36.4,0,74.4-15.8,104.2-43.5c32.9-30.5,52.9-69,72.3-106.3l0.2-0.5&#10;&#9;&#9;&#9;&#9;c1.6-3.1,3.2-6.1,4.8-9.2c18.1-34.6,38.4-70.1,69.2-91.1c18.6-12.6,43.4-21.2,75.6-26.2c13.6-2.1,25.5-3.1,36.4-3.1&#10;&#9;&#9;&#9;&#9;c15.7,0,29.1,2.1,41,6.4c12.6,4.5,24.9,12.1,37.9,20.1c9.5,5.8,19.3,11.8,30,17.2c15.1,7.6,30.4,13,45.3,18.3&#10;&#9;&#9;&#9;&#9;c15.5,5.5,30.2,10.8,43.2,17.9c39.6,21.6,66.7,64.7,69.1,109.8c3.6,67.7-42.2,129.4-93.6,191.9c-26.1,31.8-53.3,65.9-74.1,103.6&#10;&#9;&#9;&#9;&#9;c-24.6,44.7-35.6,86.7-33.8,128.3c1.1,25.2,7.1,48.7,12.8,71.4c6,23.7,11.6,46,11.1,67.6c-1.2,52.1-39.2,98.6-70.9,128.3&#10;&#9;&#9;&#9;&#9;c-34.1,32.1-68.8,54.2-103.1,65.8C1289,1152,1269.4,1155.3,1250.8,1155.3z M1016.6,1054.4c2.7,0,5.4,0.1,8,0.2&#10;&#9;&#9;&#9;&#9;c21.8,1.3,46.5,2.8,115.3,53.4c19.2,14.1,37.3,27.4,56.4,35.6c16.5,7.1,34.8,10.7,54.5,10.7c18.5,0,38.1-3.3,56.6-9.5&#10;&#9;&#9;&#9;&#9;c34.2-11.5,68.7-33.6,102.7-65.6c31.5-29.6,69.4-75.9,70.6-127.6c0.5-21.4-5.1-43.7-11.1-67.3c-5.8-22.8-11.7-46.3-12.8-71.6&#10;&#9;&#9;&#9;&#9;c-1.9-41.8,9.2-84,33.9-128.8c20.8-37.8,48-72,74.2-103.8c51.2-62.3,96.9-123.9,93.4-191.2c-2.4-44.7-29.3-87.5-68.6-109&#10;&#9;&#9;&#9;&#9;c-12.9-7.1-27.6-12.3-43.1-17.8c-14.9-5.3-30.3-10.8-45.4-18.4c-10.7-5.4-20.5-11.4-30.1-17.2c-13-8-25.3-15.5-37.7-20&#10;&#9;&#9;&#9;&#9;c-11.8-4.3-25.1-6.3-40.7-6.3c-10.9,0-22.7,1-36.3,3.1c-32.1,5-56.7,13.5-75.2,26c-30.7,20.8-50.9,56.2-68.9,90.7&#10;&#9;&#9;&#9;&#9;c-1.6,3.1-3.2,6.1-4.8,9.2l-0.2,0.5c-19.4,37.4-39.5,76-72.5,106.6c-30,27.8-68.2,43.7-104.9,43.7c-17,0-33.1-3.4-47.9-10.2&#10;&#9;&#9;&#9;&#9;c-10-4.6-18.9-10.3-27.4-15.7c-10.6-6.8-21.6-13.9-28.4-13.9c-0.7,0-1.3,0.1-1.9,0.2c-5.7,1.3-14.1,10.8-18.1,15.4&#10;&#9;&#9;&#9;&#9;c-24,27.4-45.6,57.2-64.2,88.5c-1.6,2.7-3.2,5.5-4.8,8.2c-18.7,31.8-39.8,67.9-79.2,85.3c-21.1,9.3-42.8,10.8-62,12.2&#10;&#9;&#9;&#9;&#9;c-10,0.7-19.5,1.4-28,3c-20.4,3.9-40.3,18.3-50.7,36.5c-4.8,8.5-9.6,21.4-4.8,35c3.4,9.7,11.2,19.1,18.3,27&#10;&#9;&#9;&#9;&#9;c13.5,15,28.7,29,44.7,43.9c35.8,33.1,72.8,67.3,93.3,115.5c18.3,43.1,13.8,80.9,9.8,114.2c-2,16.6-3.8,32.2-3.2,48.7&#10;&#9;&#9;&#9;&#9;c0.8,21.2,32.9,31.3,54.3,31.5l0.7,0c31,0,62.2-13.1,95.1-27l0.5-0.2C950.9,1067.6,982.1,1054.4,1016.6,1054.4z" transform="matrix(1, 0, 0, 1, 8.526512829121202e-14, 2.1316282072803006e-14)"/><path fill="#606060" d="M1196.1,1026.1c-3.2,0-6.4-0.2-9.6-0.7c-29.4-4.4-50.7-27.4-71.3-49.6c-4-4.3-8.1-8.7-12.1-12.9&#10;&#9;&#9;&#9;&#9;c-13.6-14-29.5-24.8-44.7-30.4c-18.3-6.8-34.9-5.8-48.3,2.7c-6.2,4-11.4,9.5-16.3,14.9c-2.4,2.6-4.9,5.3-7.5,7.8&#10;&#9;&#9;&#9;&#9;c-13,12.5-30.6,21.1-49.4,24.1c-18.8,3.1-38.2,0.6-54.5-7.1c-4.2-2-9.3-4.9-11.5-9.8c-3.5-8.2,2.2-15.9,7.8-23.4&#10;&#9;&#9;&#9;&#9;c1.7-2.2,3.4-4.5,4.8-6.8c7.7-12.4,13.9-39.7-31.2-83.2l-72.9-70.4c-25.2-24.3-25.4-38.2-22.8-47.5c3.1-11.2,12.8-18.6,22.2-25.8&#10;&#9;&#9;&#9;&#9;l2-1.6c29.8-22.8,54.3-52.7,70.8-86.4c2.2-4.5,4.4-9.3,6.6-13.9c13.4-28.9,27.3-58.8,56.7-66.9c19-5.2,38.7,0.9,57.7,6.8l0.9,0.3&#10;&#9;&#9;&#9;&#9;c66.5,20.7,127,14.2,185-19.9c62.3-36.6,120.8-104.4,179.1-207.2c4.4-7.7,5.3-21.2,6.3-35.5c1.4-20.1,2.8-41,14.1-48.3l0.5-0.3&#10;&#9;&#9;&#9;&#9;l0.2,0.5c16.1,37.3,50.6,54.9,83.9,71.9c11,5.6,22.3,11.4,32.9,17.8c21.5,13,40.2,32.4,51.5,53.2c12.7,23.6,15.5,47.4,7.9,68.9&#10;&#9;&#9;&#9;&#9;c-7,19.7-21.8,35.2-36.1,50.2c-11.6,12.1-23.6,24.6-31.5,39.3c-14.6,27.2-14,62,1.6,88.6c1.7,2.8,3.5,5.7,5.3,8.4&#10;&#9;&#9;&#9;&#9;c4.7,7.2,9.6,14.7,11.5,23.2c6.5,30.3-26.5,54-48.4,69.7c-54.6,39.2-98.8,95.1-124.4,157.2c-3.9,9.4-7.4,19.2-10.9,28.6&#10;&#9;&#9;&#9;&#9;c-8.1,22.3-16.5,45.4-29.8,65.5C1257.1,1001.4,1228.9,1026.1,1196.1,1026.1z M1035.3,927.1c7.4,0,15.2,1.5,23.4,4.5&#10;&#9;&#9;&#9;&#9;c15.4,5.7,31.4,16.6,45.1,30.7c4.1,4.2,8.2,8.6,12.1,12.9c20.5,22.1,41.6,44.9,70.7,49.3c36.4,5.4,68.4-21.6,84.8-46.5&#10;&#9;&#9;&#9;&#9;c13.2-20,21.6-43.1,29.7-65.3c3.4-9.5,7-19.2,10.9-28.7c25.7-62.4,70-118.4,124.7-157.7c21.7-15.5,54.4-39,48-68.7&#10;&#9;&#9;&#9;&#9;c-1.8-8.4-6.6-15.8-11.3-22.9c-1.8-2.8-3.7-5.6-5.3-8.5c-15.7-26.9-16.3-62.1-1.6-89.6c8-14.9,20-27.4,31.6-39.5&#10;&#9;&#9;&#9;&#9;c14.3-14.9,29-30.3,35.9-49.8c7.5-21.2,4.8-44.8-7.8-68.1c-11.1-20.6-29.7-39.8-51.1-52.8c-10.6-6.4-21.9-12.2-32.9-17.8&#10;&#9;&#9;&#9;&#9;c-33.3-17-67.8-34.6-84.1-71.8c-10.4,7.3-11.8,27.6-13.2,47.2c-1,14.4-1.9,28-6.4,36c-58.3,102.9-117.1,170.8-179.5,207.5&#10;&#9;&#9;&#9;&#9;c-58.3,34.3-119.1,40.8-185.8,20l-0.9-0.3c-18.9-5.9-38.4-12-57.1-6.8c-28.9,8-42.7,37.6-56,66.3c-2.2,4.6-4.4,9.4-6.6,13.9&#10;&#9;&#9;&#9;&#9;c-16.6,33.8-41.2,63.8-71.1,86.8l-2,1.6c-9.3,7.1-18.9,14.3-21.9,25.2c-4.8,17.3,9.5,34,22.5,46.6l72.9,70.4&#10;&#9;&#9;&#9;&#9;c19.6,18.9,49.7,55,31.3,84.5c-1.4,2.3-3.1,4.6-4.8,6.8c-5.4,7.2-11,14.7-7.7,22.4c2,4.6,6.9,7.4,11,9.3&#10;&#9;&#9;&#9;&#9;c16.2,7.6,35.3,10.1,53.9,7c18.6-3.1,36-11.5,48.8-23.9c2.6-2.5,5.1-5.1,7.5-7.7c5-5.4,10.2-11,16.5-15&#10;&#9;&#9;&#9;&#9;C1017.2,929.5,1025.9,927.1,1035.3,927.1z" transform="matrix(1, 0, 0, 1, 8.526512829121202e-14, 2.1316282072803006e-14)"/><path fill="#606060" d="M1195.9,986.1c-1.2,0-2.4-0.1-3.6-0.3c-15.5-2.3-31.2-19.3-47.8-37.2c-4.1-4.5-8.4-9-12.8-13.6&#10;&#9;&#9;&#9;&#9;c-41.3-42.4-81.2-47-96.5-47c-17,0-32.8,4.6-46.8,13.6c-10.4,6.7-18,14.8-24,21.3c-2.1,2.3-4.1,4.4-5.9,6.1&#10;&#9;&#9;&#9;&#9;c-8.6,8.2-20.9,13.4-34,14.2l-0.8,0l0.3-0.7c7.9-21.1,6.2-44.6-5.1-68.2c-8.1-17-21.3-34.3-39-51.4l-72.9-70.4&#10;&#9;&#9;&#9;&#9;c-3.4-3.3-6.2-6.3-8.3-8.8l-0.3-0.4l0.4-0.3c1.4-1.1,2.9-2.2,4.1-3.2l2.2-1.7c34.7-26.6,63.2-61.3,82.4-100.5&#10;&#9;&#9;&#9;&#9;c2.4-4.9,4.7-9.9,7-14.7c9.2-19.7,19.5-42,31-45.2c1.3-0.4,2.8-0.5,4.6-0.5c8.1,0,19.5,3.6,30.5,7l0.9,0.3&#10;&#9;&#9;&#9;&#9;c166.1,51.8,298-29.5,414.9-255.8c1.1-2.2,1.4-4.8,1.6-7.6c0.1-1,0.2-2.1,0.3-3.1l0.1-0.8l0.7,0.4c14.8,9.9,30.3,17.9,45.3,25.5&#10;&#9;&#9;&#9;&#9;c10.8,5.5,21,10.7,30.4,16.4c15.6,9.5,29.1,23.3,37,38c5,9.3,10,23.2,5.3,36.6c-4.1,11.6-14.8,22.8-27.3,35.8&#10;&#9;&#9;&#9;&#9;c-12.8,13.4-27.4,28.5-37.9,48.1c-10.4,19.4-15.6,41.5-15.2,64.1c0.4,22.6,6.5,44.6,17.5,63.5c2.2,3.7,4.4,7.2,6.4,10.2&#10;&#9;&#9;&#9;&#9;c1.9,2.9,4.5,6.9,5.5,9l0.1,0.2l-0.1,0.2c-0.7,1.5-2.7,4.7-7.9,9.7c-6.7,6.5-15.4,12.9-24.4,19.4c-30.4,21.8-57.7,47.9-81.2,77.6&#10;&#9;&#9;&#9;&#9;c-23.5,29.7-42.6,62.3-56.9,96.9c-4.2,10.2-7.9,20.3-11.5,30.2c-7.7,21.1-14.9,41-25.6,57.3&#10;&#9;&#9;&#9;&#9;C1227.1,974.2,1209.9,986.1,1195.9,986.1z M1035.3,887.1c15.4,0,55.7,4.6,97.2,47.3c4.4,4.5,8.7,9.1,12.8,13.6&#10;&#9;&#9;&#9;&#9;c16.5,17.8,32.1,34.6,47.2,36.9c1.1,0.2,2.3,0.3,3.4,0.3c13.7,0,30.5-11.7,42-29.1c10.6-16.1,17.8-36,25.5-57&#10;&#9;&#9;&#9;&#9;c3.6-9.9,7.3-20,11.5-30.2c14.3-34.7,33.5-67.4,57-97.1c23.5-29.8,50.9-55.9,81.4-77.8c9-6.5,17.7-12.8,24.3-19.3&#10;&#9;&#9;&#9;&#9;c5-4.9,6.9-8,7.6-9.2c-1.1-2.2-3.6-6.1-5.3-8.7c-2-3.1-4.3-6.5-6.5-10.3c-11.1-19.1-17.2-41.3-17.7-64&#10;&#9;&#9;&#9;&#9;c-0.4-22.8,4.9-45.1,15.4-64.6c10.6-19.7,25.1-34.9,38-48.3c12.4-12.9,23.1-24.1,27.1-35.4c4.6-13-0.3-26.6-5.3-35.8&#10;&#9;&#9;&#9;&#9;c-7.8-14.5-21.2-28.2-36.6-37.6c-9.3-5.7-19.5-10.9-30.3-16.4c-14.8-7.5-30.1-15.3-44.7-25.1c-0.1,0.8-0.2,1.5-0.2,2.3&#10;&#9;&#9;&#9;&#9;c-0.2,2.7-0.5,5.6-1.7,8c-58.1,112.4-118.9,187.8-185.9,230.3c-34.2,21.7-70.7,35-108.5,39.3c-38.2,4.4-79.1-0.1-121.7-13.4&#10;&#9;&#9;&#9;&#9;l-0.9-0.3c-10.9-3.4-22.3-6.9-30.2-6.9c-1.7,0-3.1,0.2-4.3,0.5c-11.1,3.1-21.3,25.1-30.4,44.6c-2.2,4.8-4.6,9.8-7,14.7&#10;&#9;&#9;&#9;&#9;c-19.3,39.3-47.9,74.2-82.7,100.9l-2.1,1.6c-1.1,0.9-2.4,1.9-3.7,2.9c2,2.4,4.7,5.2,7.9,8.3l72.9,70.4&#10;&#9;&#9;&#9;&#9;c17.8,17.2,31,34.6,39.2,51.7c11.3,23.5,13.1,47.1,5.4,68.2c12.5-1,24.3-6,32.6-13.9c1.7-1.7,3.7-3.8,5.9-6.1&#10;&#9;&#9;&#9;&#9;c6.1-6.5,13.7-14.7,24.2-21.4C1002.1,891.7,1018,887.1,1035.3,887.1z" transform="matrix(1, 0, 0, 1, 8.526512829121202e-14, 2.1316282072803006e-14)"/><path fill="#606060" d="M1198.5,878.2c-15.8,0-34-15.2-64-45l-2.1-2.1c-19.3-19.2-29-28.9-57.6-23l-0.1-0.5l0.1,0.5&#10;&#9;&#9;&#9;&#9;c-9.6,2-19,6-28.1,10c-15.2,6.6-30.9,13.3-47.2,10.1c-9.4-1.8-18.9-7.2-28.3-15.8c-26.1-24.1-38.4-68.8-15.1-97&#10;&#9;&#9;&#9;&#9;c17.8-21.6,47.4-25.6,76.1-29.4c3.4-0.5,6.8-0.9,10.2-1.4c80-11.5,156.4-52.9,209.5-113.8l0.1-0.1c15.8-18.1,35.6-40.7,59.8-36.3&#10;&#9;&#9;&#9;&#9;c11.3,2,20.6,9.7,28.9,17.8c8.9,8.6,18.2,19,19.7,31.7c2.4,21-14.6,33.9-32.6,47.7c-11.3,8.7-23,17.6-30,28.9&#10;&#9;&#9;&#9;&#9;c-10.9,17.6-9.3,38.3-7.5,60.2c0.9,10.6,1.7,21.5,1,31.9c-2.2,32.3-14.5,61.4-34.7,81.7c-2.8,2.8-5.4,5.4-7.9,8&#10;&#9;&#9;&#9;&#9;c-22,22.3-35.2,35.8-50.1,35.9C1198.6,878.2,1198.5,878.2,1198.5,878.2z M1089.9,805.4c18.2,0,27.6,9.4,43.2,25l2.1,2.1&#10;&#9;&#9;&#9;&#9;c29.8,29.6,47.8,44.7,63.3,44.7c0,0,0.1,0,0.1,0c14.5-0.1,27.7-13.5,49.4-35.6c2.5-2.5,5.1-5.2,7.9-8c20-20.2,32.2-49,34.4-81.1&#10;&#9;&#9;&#9;&#9;c0.7-10.4-0.2-21.3-1-31.8c-1.7-21.1-3.5-42.9,7.6-60.8c7.1-11.5,18.9-20.5,30.3-29.2c17.7-13.6,34.5-26.4,32.2-46.8&#10;&#9;&#9;&#9;&#9;c-1.4-12.4-10.6-22.7-19.4-31.1c-8.3-7.9-17.4-15.5-28.4-17.5c-23.7-4.2-43.2,18.1-58.8,36l-0.1,0.1&#10;&#9;&#9;&#9;&#9;c-53.3,61-129.9,102.6-210.1,114.1c-3.4,0.5-6.8,0.9-10.2,1.4c-28.5,3.8-57.9,7.7-75.4,29c-22.9,27.8-10.7,71.9,15,95.7&#10;&#9;&#9;&#9;&#9;c9.2,8.5,18.6,13.8,27.8,15.6c16,3.1,30.9-3.3,46.6-10.1c9.2-4,18.6-8,28.3-10C1080.4,806,1085.4,805.4,1089.9,805.4z" transform="matrix(1, 0, 0, 1, 8.526512829121202e-14, 2.1316282072803006e-14)"/><path fill="#606060" d="M464.8,553.2c-0.7,0-1.5,0-2.2,0c-17-0.4-33.6-5.9-46.6-15.4c-29.5-21.5-39.6-56.3-50.2-93.2&#10;&#9;&#9;&#9;&#9;c-6.8-23.7-13.9-48.3-26.7-68.8c-12.8-20.5-32.7-37.5-56-47.8s-49.3-13.6-73.1-9.2c-4,0.7-8.1,1.7-12,2.6&#10;&#9;&#9;&#9;&#9;c-11.7,2.7-23.9,5.6-35.8,3.3c-22.8-4.4-36.4-24.7-49.6-44.4c-5.9-8.9-12.1-18.1-19-25.7c-16.4-18.2-40.6-28.9-68.1-30.2&#10;&#9;&#9;&#9;&#9;c-7.8-0.4-17.1,1.8-27,4.2c-13.2,3.1-26.8,6.4-36.8,3.1c-18.7-6-19.9-17.7-21.4-32.4c-0.5-5.1-1.1-10.4-2.3-16.2&#10;&#9;&#9;&#9;&#9;c-4.9-21.9-16-41.5-26.7-60.3c-3.4-5.9-6.8-12-10.1-18.1c-19.2-36.1-29.6-77.7-29.4-117.2c0.3-42.9,12.8-81.4,36.4-111.4&#10;&#9;&#9;&#9;&#9;c44.5-56.6,119.1-76.7,193-90c26.5-4.8,53.7-9.2,79.9-13.4c81.2-13.1,165.1-26.6,243.7-54.4c112.2-39.6,213-107.9,310.4-174&#10;&#9;&#9;&#9;&#9;c7.2-4.9,14.4-9.8,21.6-14.6c23-15.5,47.6-30.4,73.6-26.2c13.9,2.2,26.6,9.9,37.8,16.7c47.9,29.2,107.6,65.4,137.6,121.8&#10;&#9;&#9;&#9;&#9;c17.8,33.4,25.2,72.4,22.7,119.3c-2.3,42.9-12.8,86.9-22.7,124.4c-11.6,43.6-23.7,86-45,124.4C944,40.3,914.1,80.6,867,100.5&#10;&#9;&#9;&#9;&#9;c-12.5,5.3-26.4,9.3-39.8,13.2c-33.2,9.6-67.6,19.5-82.9,49.4c-5.3,10.4-7.5,22.1-9.6,33.5c-1.8,9.5-3.6,19.3-7.2,28.4&#10;&#9;&#9;&#9;&#9;c-16.2,40.4-62.4,57.5-103.2,72.6c-2.9,1.1-5.8,2.1-8.6,3.2c-17.4,6.5-42.3,18-61.5,35.9c-19.1,17.7-28,37.2-26.4,58.1&#10;&#9;&#9;&#9;&#9;c0.9,11.8,5.3,23.1,9.5,34c3.1,8,6.4,16.2,8.2,24.7c3.5,15.7,1.8,33.1-4.6,48.8c-6.4,15.8-17.4,29.3-30.9,38.1&#10;&#9;&#9;&#9;&#9;C497,548.6,481.1,553.2,464.8,553.2z M231.2,315.9c17.6,0,35.7,3.8,52.4,11.2c23.5,10.4,43.6,27.5,56.5,48.2&#10;&#9;&#9;&#9;&#9;c12.8,20.7,19.9,45.3,26.8,69c10.6,36.7,20.5,71.3,49.8,92.7c26.4,19.2,65.4,20.2,92.7,2.4c27.3-17.9,42.1-54,35-85.9&#10;&#9;&#9;&#9;&#9;c-1.8-8.4-5.1-16.6-8.2-24.5c-4.3-11-8.7-22.3-9.6-34.3c-1.5-21.2,7.5-41,26.8-58.9c19.4-17.9,44.3-29.5,61.8-36.1&#10;&#9;&#9;&#9;&#9;c2.8-1.1,5.7-2.1,8.6-3.2c40.6-15,86.6-32,102.6-72c3.6-9,5.4-18.7,7.2-28.2c2.1-11.4,4.3-23.3,9.7-33.8&#10;&#9;&#9;&#9;&#9;c15.5-30.3,50.1-40.2,83.5-49.9c13.4-3.9,27.2-7.9,39.7-13.1c46.9-19.7,76.6-59.9,93.3-90.1c21.2-38.3,33.3-80.6,44.9-124.2&#10;&#9;&#9;&#9;&#9;c9.9-37.4,20.4-81.4,22.7-124.2c2.5-46.7-4.9-85.5-22.6-118.8C975-413.7,915.5-449.9,867.6-479c-11.1-6.7-23.7-14.4-37.4-16.6&#10;&#9;&#9;&#9;&#9;c-25.6-4.1-50,10.6-72.8,26.1c-7.2,4.9-14.4,9.8-21.6,14.6c-97.5,66.1-198.4,134.4-310.7,174.1c-78.7,27.8-162.7,41.3-243.9,54.4&#10;&#9;&#9;&#9;&#9;c-26.2,4.2-53.4,8.6-79.9,13.4c-73.8,13.3-148.1,33.4-192.4,89.7c-23.4,29.8-35.9,68.1-36.2,110.8&#10;&#9;&#9;&#9;&#9;c-0.2,39.3,10.2,80.7,29.3,116.7c3.2,6.1,6.7,12.2,10,18.1c10.8,18.9,21.9,38.5,26.8,60.6c1.3,5.8,1.9,11.4,2.4,16.3&#10;&#9;&#9;&#9;&#9;c1.5,14.9,2.6,25.7,20.7,31.6c9.8,3.2,23.3,0,36.3-3.1c10-2.4,19.4-4.6,27.3-4.2c27.7,1.3,52.2,12.2,68.8,30.5&#10;&#9;&#9;&#9;&#9;c7,7.7,13.2,16.9,19.1,25.9c13.6,20.4,26.5,39.6,49,43.9c11.7,2.2,23.8-0.6,35.4-3.3c4-0.9,8-1.9,12.1-2.6&#10;&#9;&#9;&#9;&#9;C216.8,316.5,224,315.9,231.2,315.9z" transform="matrix(1, 0, 0, 1, 8.526512829121202e-14, 2.1316282072803006e-14)"/><path fill="#606060" d="M464.8,513.2c-9.4,0-18.4-2.7-25.2-7.7c-18.5-13.5-26.3-40.6-35.3-71.9c-7.2-25.1-15.4-53.6-31.1-78.9&#10;&#9;&#9;&#9;&#9;c-14.7-23.6-35.9-43.4-61.3-57.2c-25-13.5-52.8-20.7-80.5-20.7c-9.6,0-19.2,0.9-28.5,2.6c-4.9,0.9-9.5,2-13.8,3&#10;&#9;&#9;&#9;&#9;c-6.8,1.6-13.2,3.1-17.5,3.1c-0.9,0-1.4-0.1-1.8-0.1c-6.4-1.2-16.1-15.7-23.9-27.3c-6.4-9.6-13.7-20.5-22.6-30.3&#10;&#9;&#9;&#9;&#9;c-23.6-26.2-57.7-41.5-95.9-43.3c-1.2-0.1-2.4-0.1-3.6-0.1c-12.1,0-24,2.8-34.5,5.3c-2.8,0.7-6.1,1.4-9.1,2.1l-0.5,0.1l-0.1-0.5&#10;&#9;&#9;&#9;&#9;c-0.5-4.4-1.2-10.4-2.7-16.9c-6.2-27.8-19.4-51-31-71.4c-3.4-5.9-6.5-11.5-9.5-17.1c-16.1-30.4-24.9-65.3-24.7-98.2&#10;&#9;&#9;&#9;&#9;c0.1-23.7,5.1-58,27.8-86.9c36.2-46.1,102.5-63.5,168.7-75.4c26.2-4.7,53.1-9.1,79.1-13.3c83-13.4,168.7-27.2,250.8-56.2&#10;&#9;&#9;&#9;&#9;c117-41.4,220-111.1,319.5-178.6l0.6-0.4c7-4.8,14-9.5,21-14.2c11.1-7.5,29.7-20.1,42.2-20.1c0.9,0,1.8,0.1,2.6,0.2&#10;&#9;&#9;&#9;&#9;c6.2,1,15.2,6.5,23.3,11.4c46.1,28,98.3,59.7,123.1,106.4c33,61.9,15.5,143.2-3.4,214.6c-10.9,41.1-22.3,80.9-41.3,115.3&#10;&#9;&#9;&#9;&#9;c-19.4,35.1-45.8,61-74.3,73c-10.4,4.4-22.5,7.9-35.4,11.6c-37.5,10.8-84.2,24.3-107.4,69.6c-8,15.6-10.8,30.9-13.4,44.4&#10;&#9;&#9;&#9;&#9;c-1.5,7.9-2.9,15.4-5,20.8c-9.6,23.9-45.3,37.1-79.9,49.9c-2.9,1.1-5.9,2.2-8.7,3.2c-20.8,7.8-50.6,21.7-74.7,44&#10;&#9;&#9;&#9;&#9;c-35.4,32.8-40.8,67.2-39.2,90.3c1.3,17.8,7.1,32.6,12.2,45.7c2.7,6.8,5.2,13.3,6.4,18.7c3.6,16.4-4.3,35.7-18.3,44.8&#10;&#9;&#9;&#9;&#9;C481.6,510.9,473.4,513.2,464.8,513.2z M231.3,275.9c27.9,0,55.9,7.2,81,20.8c25.6,13.9,46.9,33.8,61.7,57.5&#10;&#9;&#9;&#9;&#9;c15.8,25.4,24,53.9,31.2,79.1c9,31.2,16.7,58.2,34.9,71.4c6.7,4.9,15.4,7.5,24.6,7.5c8.3,0,16.4-2.3,22.6-6.3&#10;&#9;&#9;&#9;&#9;c13.7-9,21.4-27.8,17.9-43.8c-1.2-5.3-3.7-11.8-6.4-18.6c-5.1-13.1-10.9-28-12.3-45.9c-1.7-23.3,3.8-58.1,39.5-91.1&#10;&#9;&#9;&#9;&#9;c24.2-22.4,54.1-36.4,75-44.2c2.9-1.1,5.8-2.2,8.7-3.2c34.4-12.7,69.9-25.9,79.3-49.4c2.1-5.3,3.5-12.7,5-20.6&#10;&#9;&#9;&#9;&#9;c2.5-13.6,5.4-29,13.5-44.7c23.4-45.6,70.3-59.2,108-70.1c12.8-3.7,25-7.2,35.3-11.5c28.3-11.9,54.6-37.7,73.8-72.6&#10;&#9;&#9;&#9;&#9;c19-34.4,30.3-74.1,41.2-115.1c18.9-71.2,36.3-152.2,3.5-213.8c-24.7-46.4-76.8-78.1-122.8-106c-8-4.8-17-10.3-22.9-11.3&#10;&#9;&#9;&#9;&#9;c-0.8-0.1-1.6-0.2-2.5-0.2c-12.2,0-30.7,12.5-41.7,19.9c-7,4.7-14,9.5-21,14.2l-0.6,0.4c-99.6,67.5-202.6,137.3-319.8,178.7&#10;&#9;&#9;&#9;&#9;c-82.1,29-167.9,42.8-250.9,56.2c-26.1,4.2-53,8.5-79.2,13.3c-66,11.9-132,29.2-168.1,75c-22.6,28.7-27.5,62.8-27.6,86.3&#10;&#9;&#9;&#9;&#9;c-0.2,32.8,8.5,67.5,24.6,97.7c3,5.6,6.1,11.2,9.5,17.1c11.7,20.5,24.9,43.7,31.1,71.7c1.4,6.3,2.1,12,2.6,16.4&#10;&#9;&#9;&#9;&#9;c2.8-0.6,5.8-1.3,8.5-1.9c10.6-2.5,22.5-5.3,34.8-5.3c1.2,0,2.5,0,3.7,0.1c38.5,1.8,72.8,17.3,96.6,43.7&#10;&#9;&#9;&#9;&#9;c8.9,9.9,16.2,20.8,22.7,30.4c7.7,11.5,17.2,25.7,23.3,26.9c0.3,0.1,0.8,0.1,1.6,0.1c4.1,0,10.5-1.5,17.2-3c4.4-1,9-2.1,13.9-3&#10;&#9;&#9;&#9;&#9;C212,276.7,221.6,275.9,231.3,275.9z" transform="matrix(1, 0, 0, 1, 8.526512829121202e-14, 2.1316282072803006e-14)"/><path fill="#606060" d="M444.8,356.3c-2,0-4-0.3-5.9-0.8c-14.6-3.9-24.1-22.2-33.2-39.9c-6.1-11.7-11.8-22.8-18.8-29.7&#10;&#9;&#9;&#9;&#9;c-28.8-28.2-69.3-42.2-105.6-36.4l-0.1-0.5l0.1,0.5c-5.6,0.9-11.2,2.2-16.7,3.4c-13.6,3.1-27.8,6.3-41.6,3.6&#10;&#9;&#9;&#9;&#9;c-33.3-6.5-50-41.8-64.7-73l-0.2-0.5c-14.9-31.5-52.7-62.3-85.2-57.9c-4,0.5-5,1.2-6,1.9c-1.1,0.8-2.2,1.5-6.7,1.8&#10;&#9;&#9;&#9;&#9;c-21.9,1.5-39.4-16-55-35.2c-15.6-19.2-30.7-39.9-27.6-63.1c1.4-10.9,6.9-20.8,12.3-29.9C5.3-25.4,23.4-50.4,43.5-73.4&#10;&#9;&#9;&#9;&#9;C52-83.1,62.2-94,75.2-100.1c12.8-6,27.4-6.9,41.4-7.7l0.5,0c83.7-5.1,168-15.2,250.6-29.9l3.5-0.6&#10;&#9;&#9;&#9;&#9;c73.9-13.2,157.7-28.2,221.2,13.5c11.4,7.5,18.6,14.9,22.7,23.3c3.1,6.2,4.4,13.2,5.7,19.9c0.8,4.2,1.6,8.5,2.9,12.6&#10;&#9;&#9;&#9;&#9;c9,30,43.6,49.7,74,42.1c1.7-0.4,3.4-0.9,5-1.4c4.9-1.4,9.9-2.9,15.1-2.5c7,0.5,13.1,4.5,17.3,11.2c5.6,9,6.8,21.4,2.9,31.1&#10;&#9;&#9;&#9;&#9;c-6.6,16.5-22,27-36.9,37.2l-0.6,0.4c-14.3,9.8-30,21.7-34.8,38.8c-2.8,10-1.5,20.7-0.3,31c1.2,10.3,2.5,21-0.3,31.1&#10;&#9;&#9;&#9;&#9;c-2.4,8.9-12.3,30.8-51.4,40.7c-7.4,1.9-15,3.2-22.4,4.6c-14.7,2.7-29.9,5.4-43.4,12.1c-39.5,19.6-54.4,64.7-68.8,108.4&#10;&#9;&#9;&#9;&#9;c-2.2,6.8-4.6,13.8-6.9,20.5c-1.8,5.3-4,10.6-8.6,13.6C456.8,354.1,450.6,356.3,444.8,356.3z M297.8,247.3&#10;&#9;&#9;&#9;&#9;c31.9,0,65.1,13.8,89.7,37.9c7.1,7,12.9,18.2,19,30c9,17.5,18.4,35.6,32.6,39.4c7.2,1.9,15,0.1,24-5.7c4.3-2.8,6.4-8,8.2-13.1&#10;&#9;&#9;&#9;&#9;c2.3-6.7,4.7-13.7,6.9-20.5c14.5-43.9,29.4-89.2,69.3-109c13.6-6.8,28.9-9.5,43.7-12.2c7.4-1.3,15-2.7,22.3-4.6&#10;&#9;&#9;&#9;&#9;c38.6-9.8,48.3-31.2,50.6-40c2.7-9.9,1.4-20.5,0.2-30.8c-1.2-10.4-2.5-21.2,0.3-31.4C669.7,70,685.5,58,700,48.1l0.6-0.4&#10;&#9;&#9;&#9;&#9;c14.8-10.1,30-20.5,36.5-36.7c3.7-9.3,2.6-21.5-2.8-30.2c-4-6.4-9.9-10.2-16.5-10.7c-5-0.4-9.9,1.1-14.7,2.5&#10;&#9;&#9;&#9;&#9;c-1.6,0.5-3.3,1-5,1.4c-4.5,1.1-9.1,1.7-13.7,1.7c-26.9,0-53.7-18.4-61.6-44.4c-1.3-4.2-2.1-8.5-2.9-12.7&#10;&#9;&#9;&#9;&#9;c-1.3-6.6-2.6-13.5-5.6-19.6c-4-8.3-11.1-15.5-22.4-22.9c-63.1-41.4-146.7-26.5-220.4-13.3l-3.5,0.6&#10;&#9;&#9;&#9;&#9;C285.4-122,201-112,117.3-106.9l-0.5,0c-14,0.9-28.4,1.7-41.1,7.6c-12.9,6-23,16.8-31.4,26.5c-20,22.9-38.1,47.8-53.6,74&#10;&#9;&#9;&#9;&#9;c-5.4,9.1-10.8,18.8-12.2,29.5c-3,22.8,11.9,43.3,27.4,62.3c15.5,19,32.7,36.4,54.2,34.9c4.3-0.3,5.2-0.9,6.2-1.6&#10;&#9;&#9;&#9;&#9;c1-0.7,2.2-1.5,6.5-2.1c32.9-4.5,71.1,26.6,86.2,58.5l0.2,0.5c14.6,30.9,31.2,66,64,72.4c13.6,2.7,27.7-0.5,41.2-3.6&#10;&#9;&#9;&#9;&#9;c5.5-1.3,11.2-2.5,16.8-3.4l0,0C286.6,247.7,292.2,247.3,297.8,247.3z" transform="matrix(1, 0, 0, 1, 8.526512829121202e-14, 2.1316282072803006e-14)"/><path fill="#606060" d="M442.7,303.4l-0.5-1c-0.8-1.5-1.5-2.9-2.2-4.1l-0.1-0.2c-7.2-13.9-14.6-28.3-26.1-39.5&#10;&#9;&#9;&#9;&#9;c-31.6-31-73.7-48.7-115.6-48.7c-7.7,0-15.5,0.6-23,1.8c-6.8,1.1-13.1,2.5-19.2,3.9c-8.3,1.9-16.1,3.7-22,3.7&#10;&#9;&#9;&#9;&#9;c-1.4,0-2.6-0.1-3.7-0.3c-14.2-2.8-27.1-29.9-37.4-51.7l-0.2-0.5c-25-52.9-61.1-82.1-101.5-82.1c-3.7,0-7.5,0.3-11.2,0.8&#10;&#9;&#9;&#9;&#9;c-6.4,0.9-11.9,2.4-16.3,3.6c-2.1,0.6-4.9,1.4-6.1,1.5l-0.1,0l-0.1,0c-2-0.5-8.1-3.4-22.4-21.1c-5.6-6.9-20.4-25.1-19.3-33.8&#10;&#9;&#9;&#9;&#9;c0.5-4,5-11.6,7.2-15.3C37.2-3.8,53.9-26.8,72.5-48c6.4-7.3,13.1-14.4,19-17.2c6.2-2.9,16.6-3.5,27.5-4.2l0.5,0&#10;&#9;&#9;&#9;&#9;c85.2-5.2,171-15.4,255-30.4l3.5-0.6c36.6-6.5,74.4-13.3,109.4-13.3c34.8,0,62.2,6.9,83.8,21.1c7.5,4.9,9,7.6,9.3,8&#10;&#9;&#9;&#9;&#9;c0.8,1.6,1.7,6.6,2.4,10.2c0.9,4.9,2,10.5,3.8,16.5c12.2,40.6,52.7,70.5,96.2,71.1l1.6,0l-1.3,0.9c-1.3,0.9-2.6,1.8-3.8,2.6&#10;&#9;&#9;&#9;&#9;l-0.7,0.5c-14.4,9.8-41.2,28.1-50.2,60.2c-4.9,17.3-3,33.2-1.5,46c0.7,6.1,1.6,13.6,0.8,16.5c-0.9,3.2-9,9.7-23.7,13.4&#10;&#9;&#9;&#9;&#9;c-6.1,1.5-12.7,2.7-19.8,4c-16.5,3-35.3,6.4-53.7,15.5c-53.9,26.7-72.7,83.7-87.8,129.5L442.7,303.4z M298.2,208.8&#10;&#9;&#9;&#9;&#9;c42.2,0,84.6,17.9,116.3,49c11.6,11.3,19,25.8,26.3,39.8l0.1,0.2c0.5,1,1,2,1.6,3.1c15.1-45.8,34.1-102.3,88-129&#10;&#9;&#9;&#9;&#9;c18.5-9.2,37.3-12.6,53.9-15.6c7-1.3,13.7-2.5,19.7-4c14.6-3.7,22.3-10.2,22.9-12.7c0.7-2.7-0.1-10.1-0.9-16.1&#10;&#9;&#9;&#9;&#9;c-1.5-12.8-3.4-28.8,1.5-46.3c9.1-32.4,36.1-50.9,50.6-60.8l0.7-0.5c0.8-0.6,1.7-1.1,2.5-1.7c-43.3-1.3-83.4-31.2-95.6-71.8&#10;&#9;&#9;&#9;&#9;c-1.8-6.1-2.9-11.6-3.8-16.6c-0.7-3.6-1.6-8.5-2.4-10c-0.1-0.1-1.4-2.7-8.9-7.6c-21.4-14.1-48.7-20.9-83.3-20.9&#10;&#9;&#9;&#9;&#9;c-34.9,0-72.7,6.7-109.3,13.3l-3.5,0.6c-84.1,15-169.9,25.2-255.1,30.4l-0.5,0c-10.9,0.7-21.1,1.3-27.2,4.1&#10;&#9;&#9;&#9;&#9;c-5.8,2.7-12.4,9.7-18.7,16.9C54.7-26.2,38-3.2,23.7,21c-2.1,3.6-6.6,11.1-7.1,14.9c-1.1,8.2,13.6,26.2,19.1,33&#10;&#9;&#9;&#9;&#9;C50,86.4,55.9,89.2,57.5,89.6c1.2-0.2,3.9-0.9,5.9-1.5c4.5-1.2,10-2.8,16.5-3.7c3.8-0.5,7.6-0.8,11.4-0.8&#10;&#9;&#9;&#9;&#9;c40.9,0,77.2,29.3,102.4,82.6l0.2,0.5c10.2,21.6,22.9,48.4,36.6,51.1c1,0.2,2.1,0.3,3.5,0.3c5.7,0,13.5-1.8,21.7-3.7&#10;&#9;&#9;&#9;&#9;c6.1-1.4,12.4-2.8,19.3-3.9C282.6,209.4,290.4,208.8,298.2,208.8z" transform="matrix(1, 0, 0, 1, 8.526512829121202e-14, 2.1316282072803006e-14)"/><path fill="#606060" d="M412.8,192.4c-10.3,0-21.7-7.3-32.9-14.4c-7.8-4.9-15.1-9.6-21.8-11.7c-4.6-1.4-9.4-2.8-14-4.1&#10;&#9;&#9;&#9;&#9;c-21-5.9-42.8-12.1-58.1-27.6c-9-9.1-15.3-21.1-21.4-32.6c-9-17-17.4-33.1-33.9-40.8c-11.7-5.5-25.3-5.2-38.4-5&#10;&#9;&#9;&#9;&#9;c-13.7,0.3-27.8,0.5-40-5.7c-20.7-10.6-29.7-39.5-19.5-63c8.8-20.5,30.4-36.1,56.2-40.8c20.2-3.6,42.8-1.4,71.1,7&#10;&#9;&#9;&#9;&#9;c4.2,1.3,8.6,2.6,12.8,3.9c31.7,9.8,64.5,20,92.8,5.4c5.8-3,11.3-7,16.6-10.9c9.7-7.1,19.7-14.5,31.7-15.5&#10;&#9;&#9;&#9;&#9;c17-1.4,31.7,10.1,45.4,21.9c11.5,10,24.3,23.5,20.7,38.5c-1,4.1-3.2,7.8-5.3,11.4c-1.4,2.4-2.9,4.9-4,7.4&#10;&#9;&#9;&#9;&#9;c-10.1,23.8,13.2,49.2,20.6,56.4l0.6,0.6c4.1,3.9,8.3,8,9.7,13.5c2.5,9.2-3.9,18.4-11.4,23.5c-4.3,3-9.2,5.1-13.9,7.1&#10;&#9;&#9;&#9;&#9;c-3.5,1.5-7.2,3.1-10.5,5c-15.8,9-20.3,22.9-24.7,36.3c-3.3,10-6.7,20.4-14.8,28.4C422.3,190.7,417.7,192.4,412.8,192.4z&#10;&#9;&#9;&#9;&#9; M358.4,165.3c6.8,2.1,14.2,6.8,22.1,11.8c16.2,10.3,32.9,20.9,45.4,8.7c7.9-7.8,11.1-17.6,14.5-28c4.4-13.6,9-27.6,25.1-36.8&#10;&#9;&#9;&#9;&#9;c3.4-1.9,7.1-3.5,10.6-5.1c4.7-2,9.5-4.1,13.7-7c7.2-4.9,13.3-13.7,11-22.4c-1.4-5.2-5.5-9.2-9.5-13l-0.6-0.6&#10;&#9;&#9;&#9;&#9;c-6.1-6-14.5-15.5-19.4-26.9c-4.9-11.2-5.3-21.5-1.4-30.7c1.1-2.6,2.6-5.1,4.1-7.6c2.1-3.5,4.3-7.2,5.2-11.1&#10;&#9;&#9;&#9;&#9;c3.5-14.5-9-27.7-20.4-37.5c-13.5-11.7-28-23-44.6-21.7c-11.8,1-21.2,7.9-31.2,15.3c-5.3,3.9-10.9,8-16.7,11&#10;&#9;&#9;&#9;&#9;c-28.7,14.8-61.7,4.6-93.6-5.3c-4.2-1.3-8.6-2.7-12.8-3.9c-28.2-8.3-50.7-10.5-70.7-6.9c-25.5,4.6-46.8,20-55.5,40.2&#10;&#9;&#9;&#9;&#9;c-4.6,10.6-5.3,23.4-1.9,35c3.5,12.1,11,21.6,20.9,26.7c11.9,6.1,26,5.9,39.5,5.6c13.2-0.3,26.9-0.5,38.8,5.1&#10;&#9;&#9;&#9;&#9;c16.8,7.9,25.3,24.1,34.4,41.3c6,11.5,12.3,23.4,21.2,32.4c15.2,15.3,36.8,21.4,57.7,27.3C349,162.6,353.8,163.9,358.4,165.3z" transform="matrix(1, 0, 0, 1, 8.526512829121202e-14, 2.1316282072803006e-14)"/><path fill="#606060" d="M408.9,161.1l-0.5-0.2c-4.1-2.1-9.3-5.5-12.7-7.6c-9.1-5.8-18.5-11.7-28.9-15c-4.9-1.5-9.9-2.9-14.6-4.3&#10;&#9;&#9;&#9;&#9;c-18.2-5.1-35.3-10-45.2-20c-6-6-11-15.5-16.3-25.6c-9.8-18.6-22-41.8-47.5-53.8c-14.8-6.9-29.8-7.9-42.5-7.9&#10;&#9;&#9;&#9;&#9;c-3.1,0-6.1,0.1-9,0.1c-2.8,0.1-5.3,0.1-7.9,0.1c-6.5,0-13.7-0.3-18.1-2.6c-6.7-3.4-9.7-16.4-5.9-25.2&#10;&#9;&#9;&#9;&#9;c4.9-11.4,18.4-20.6,34.5-23.5c4.5-0.8,9.3-1.2,14.3-1.2c12.4,0,26.1,2.4,43.3,7.4c4.1,1.2,8.1,2.5,12.4,3.8&#10;&#9;&#9;&#9;&#9;c21.2,6.6,45.2,14,69.4,14c16.7,0,32-3.6,45.6-10.6c7.9-4.1,14.6-9,20.6-13.4c6.1-4.5,13-9.6,16.7-9.9c0.1,0,0.3,0,0.4,0&#10;&#9;&#9;&#9;&#9;c6.2,0,18.6,10.8,23.3,14.8c6.1,5.3,8.9,8.7,10.3,10.6l0.2,0.3l-0.2,0.3c-0.3,0.5-0.6,1-0.9,1.5c-1.8,3-3.9,6.6-5.8,11&#10;&#9;&#9;&#9;&#9;c-7,16.4-6.5,34.8,1.5,53.2c4.7,10.7,11.7,21.2,21,31.1l0.5,0.5l-2.1,0.9c-4,1.8-8.6,3.7-13.3,6.4&#10;&#9;&#9;&#9;&#9;c-25.7,14.6-33.2,37.5-38.1,52.7c-1.4,4.3-2.7,8.4-4.2,11.5L408.9,161.1z M200.7,25.7c12.8,0,27.9,0.9,42.9,8&#10;&#9;&#9;&#9;&#9;c25.7,12.1,38,35.4,47.9,54.2c5.3,10,10.3,19.5,16.1,25.4c9.7,9.8,26.7,14.6,44.8,19.7c4.8,1.4,9.7,2.7,14.7,4.3&#10;&#9;&#9;&#9;&#9;c10.6,3.3,20,9.3,29.2,15.1c3.3,2.1,8.3,5.2,12.2,7.4c1.3-3,2.6-6.8,3.9-10.9c5-15.3,12.6-38.5,38.6-53.3&#10;&#9;&#9;&#9;&#9;c4.8-2.7,9.4-4.7,13.4-6.5l0.8-0.3c-9.1-9.9-16.1-20.3-20.7-30.9c-8.1-18.6-8.6-37.3-1.5-54c1.9-4.5,4.1-8.2,5.9-11.1&#10;&#9;&#9;&#9;&#9;c0.2-0.4,0.5-0.8,0.8-1.3c-1.4-1.9-4.2-5.1-9.9-10.1c-4.6-4-16.8-14.6-22.6-14.6c-0.1,0-0.2,0-0.3,0c-3.5,0.3-10.2,5.3-16.2,9.7&#10;&#9;&#9;&#9;&#9;c-6,4.4-12.8,9.4-20.7,13.5C366-3,350.5,0.6,333.7,0.6c-24.4,0-48.5-7.5-69.7-14.1c-4.3-1.3-8.4-2.6-12.4-3.8&#10;&#9;&#9;&#9;&#9;c-17.1-5-30.7-7.4-43-7.4c-4.9,0-9.7,0.4-14.1,1.2c-15.7,2.8-28.9,11.8-33.7,22.9c-3.6,8.4-0.8,20.7,5.5,23.9&#10;&#9;&#9;&#9;&#9;c4.2,2.2,11.3,2.5,17.6,2.5c2.5,0,5.1,0,7.8-0.1C194.5,25.7,197.5,25.7,200.7,25.7z" transform="matrix(1, 0, 0, 1, 8.526512829121202e-14, 2.1316282072803006e-14)"/><path fill="#606060" d="M671,522.8L671,522.8c-21.9,0-39.5-9.8-48.5-26.8c-12.3-23.4-4.2-52.5,22-79.9l1.8-1.9&#10;&#9;&#9;&#9;&#9;c11.6-12.1,23.6-24.6,22.6-35.5c-0.3-2.7-1.5-6.2-2.7-10c-2.1-6.1-4.4-13.1-4.8-21.3c-1.7-32.3,25.9-58.5,72-68.6&#10;&#9;&#9;&#9;&#9;c23-5,45.8-11.1,49.7-24.8c0.9-3.2,1-7.8,1-12.7c0-3.5,0.1-7.5,0.5-11.7c2.2-24.4,13.9-45.7,35.7-65.3&#10;&#9;&#9;&#9;&#9;c17.3-15.5,38.2-27.6,58.4-39.2c6-3.4,11.6-6.7,17.1-10c36.8-22.2,69.1-53.4,93.3-90.3c2-3.1,14.1-25.1,26.1-50.2&#10;&#9;&#9;&#9;&#9;c20.9-43.9,21.4-54.9,21.4-55.4c0,0,0,0,0,0l1,0c0,0,0,0,0,0l0,0c-0.1,2.3,1.8,8.1,7.8,11.5l18.9-35.3l0.4,0.2&#10;&#9;&#9;&#9;&#9;c19.4,10.4,42,15.9,65.2,15.9c28.9,0,57.2-8.6,79.7-24.2c9.2-6.4,17.8-14,26.9-22c6.9-6.1,13.9-12.3,21.5-18.2&#10;&#9;&#9;&#9;&#9;c18.3-14.3,38.6-25.9,60.3-34.4c16.6-6.5,31.1-9.7,44.5-9.7c6.5,0,12.8,0.8,18.8,2.2c19.7,4.9,36.9,18.3,48.3,37.6&#10;&#9;&#9;&#9;&#9;c10.1,17,15.2,37.5,14.3,57.5c-1.5,37.2-19.8,70.8-34.5,97.9c-24.4,45-54.9,101-107.6,131.8c-10.7,6.3-21.7,11.1-32.4,15.8&#10;&#9;&#9;&#9;&#9;c-11.6,5.1-22.6,10-32.3,16.2c-29.5,19-48.8,51.3-69.3,85.6c-24.9,41.7-50.7,84.8-97.5,106.2c-28,12.8-57.1,14.5-81.9,14.5&#10;&#9;&#9;&#9;&#9;c-8.8,0-17.7-0.2-26.3-0.5c-8.4-0.2-17-0.5-25.4-0.5c-11.9,0-21.5,0.5-30.3,1.5c-38.2,4.5-74.3,21.7-101.8,48.6&#10;&#9;&#9;&#9;&#9;c-10.2,10-19.4,21.3-29.1,33.3c-16.9,20.9-34.5,42.6-58.9,58.1C703.4,517.8,686.6,522.8,671,522.8z M671,521.8L671,521.8&#10;&#9;&#9;&#9;&#9;c15.4,0,32-4.9,45.6-13.5c24.3-15.4,41.7-37,58.6-57.9c9.7-12,18.9-23.4,29.2-33.4c27.7-27,64-44.3,102.4-48.8&#10;&#9;&#9;&#9;&#9;c8.8-1,18.5-1.5,30.4-1.5c8.4,0,17,0.2,25.4,0.5c8.6,0.2,17.5,0.5,26.3,0.5c24.7,0,53.7-1.7,81.5-14.4&#10;&#9;&#9;&#9;&#9;c46.5-21.2,72.2-64.2,97-105.8c20.5-34.4,39.9-66.8,69.6-85.9c9.8-6.3,20.8-11.1,32.5-16.3c10.6-4.7,21.6-9.5,32.3-15.8&#10;&#9;&#9;&#9;&#9;C1354.2,98.8,1384.6,42.9,1409-2c14.6-27,32.9-60.5,34.4-97.4c0.8-19.9-4.2-40.1-14.2-57c-11.3-19.1-28.3-32.3-47.7-37.2&#10;&#9;&#9;&#9;&#9;c-5.9-1.5-12.2-2.2-18.6-2.2c-13.2,0-27.7,3.1-44.2,9.6c-21.6,8.5-41.8,20-60,34.2c-7.5,5.9-14.6,12.1-21.4,18.1&#10;&#9;&#9;&#9;&#9;c-9.2,8.1-17.8,15.7-27,22.1c-22.7,15.7-51.2,24.4-80.3,24.4c-23.2,0-45.7-5.5-65.2-15.8l-18.9,35.3l-0.4-0.2&#10;&#9;&#9;&#9;&#9;c-4.8-2.6-7.2-6.6-8.2-9.7c-1.2,5.6-5.6,20.3-21.1,52.8c-12,25.2-24.1,47.3-26.2,50.4c-24.4,37-56.7,68.3-93.7,90.6&#10;&#9;&#9;&#9;&#9;c-5.5,3.3-11.1,6.6-17.1,10c-20.2,11.6-41,23.6-58.2,39.1c-21.6,19.4-33.2,40.5-35.4,64.6c-0.4,4.1-0.4,8.1-0.5,11.6&#10;&#9;&#9;&#9;&#9;c-0.1,5-0.1,9.6-1.1,13c-4.1,14.3-27.1,20.4-50.4,25.5c-45.6,10-72.9,35.8-71.2,67.6c0.4,8.1,2.7,15,4.8,21&#10;&#9;&#9;&#9;&#9;c1.3,3.8,2.5,7.4,2.8,10.2c1.1,11.3-11.1,24-22.9,36.2l-1.8,1.9c-25.9,27.1-33.9,55.8-21.9,78.8&#10;&#9;&#9;&#9;&#9;C632.2,512.2,649.5,521.8,671,521.8z" transform="matrix(1, 0, 0, 1, 8.526512829121202e-14, 2.1316282072803006e-14)"/><path fill="#606060" d="M730.2,449.3c-3.8,0-7.4-0.4-10.7-1.3c-8-2.1-14-6.8-17.6-13.5c-10.5-20,8.6-43.3,17.3-52.4l1.6-1.7&#10;&#9;&#9;&#9;&#9;c13-13.5,27.6-28.8,25.8-47.2c-0.4-4.5-1.9-8.9-3.4-13.2c-1.6-4.7-3.2-9.7-3.5-14.7c-1.3-24,26-38.6,51.9-44.3&#10;&#9;&#9;&#9;&#9;c26.6-5.8,53.2-13.4,59.5-35.8c1.5-5.3,1.6-11,1.7-16.5c0-3.1,0.1-6.2,0.4-9.3c3.6-39.4,42.9-62,77.6-82&#10;&#9;&#9;&#9;&#9;c5.6-3.2,10.9-6.3,16.1-9.4l0.3,0.4l-0.3-0.4c36.2-21.8,68-52.5,91.8-88.8c6.2-9.5,50.6-93.8,46.6-109.9c-0.3-1-0.7-1.7-1.4-2.1&#10;&#9;&#9;&#9;&#9;l0.5-0.9c47.3,25.3,108.6,21.8,152.7-8.8c9.4-6.5,18.1-14.2,26.5-21.6c6.1-5.4,12.4-10.9,18.9-16c15.5-12.1,32.6-21.9,50.9-29&#10;&#9;&#9;&#9;&#9;c19-7.5,34-9.4,47.2-6.1c13.5,3.4,25,12.4,33.1,26.2c7.4,12.5,11.3,28.1,10.7,42.9c-1.2,30-16.3,57.7-29.6,82.2&#10;&#9;&#9;&#9;&#9;c-21.4,39.5-48.1,88.6-92.2,114.3c-9,5.2-18.6,9.5-28,13.6c-10.9,4.8-22.1,9.8-32.3,16.3c-30.8,19.8-50.6,52.9-69.7,84.9&#10;&#9;&#9;&#9;&#9;c-21.5,36-43.7,73.2-81.6,90.5c-28.5,13-60.6,12.1-91.6,11.2c-17.8-0.5-36.2-1-53.9,1.1c-39.2,4.6-76.3,22.3-104.5,49.8&#10;&#9;&#9;&#9;&#9;c-10.2,9.9-19.4,21.3-28.3,32.3c-14.7,18.1-29.9,36.9-49.8,49.6C753.1,445.8,741,449.3,730.2,449.3z M1086-91.7&#10;&#9;&#9;&#9;&#9;c0.1,0.2,0.2,0.5,0.2,0.7c4.4,17.3-42.1,103.7-46.7,110.6c-23.9,36.4-55.8,67.2-92.2,89.1c-5.2,3.1-10.5,6.2-16.1,9.4&#10;&#9;&#9;&#9;&#9;c-36.1,20.8-73.5,42.4-77.1,81.3c-0.3,3-0.3,6.2-0.4,9.2c-0.1,5.6-0.1,11.3-1.7,16.8c-7.1,24.9-39.1,31.9-60.3,36.5&#10;&#9;&#9;&#9;&#9;c-25.5,5.6-52.3,19.9-51.1,43.2c0.3,5,1.9,9.8,3.5,14.5c1.5,4.3,3,8.8,3.4,13.4c1.9,18.8-13,34.3-26.1,48l-1.6,1.7&#10;&#9;&#9;&#9;&#9;c-8.5,8.9-27.3,31.8-17.1,51.2c3.4,6.5,9.1,10.9,16.9,13c12.5,3.3,29.6,0,42.6-8.3c19.8-12.6,34.9-31.3,49.6-49.3&#10;&#9;&#9;&#9;&#9;c8.9-11,18.1-22.4,28.4-32.4c28.4-27.7,65.7-45.5,105.1-50.1c17.7-2.1,36.2-1.6,54-1.1c62.9,1.7,77.3-4.8,91.2-11.1&#10;&#9;&#9;&#9;&#9;c37.6-17.2,59.8-54.2,81.2-90.1c19.2-32.1,39-65.3,70-85.2c10.2-6.6,21.5-11.5,32.4-16.4c9.3-4.1,19-8.4,27.9-13.6&#10;&#9;&#9;&#9;&#9;c43.9-25.7,70.5-74.6,91.8-114c13.2-24.4,28.2-52,29.5-81.7c1.5-36.9-21-62.6-43-68.1c-13-3.2-27.8-1.3-46.6,6.1&#10;&#9;&#9;&#9;&#9;c-18.2,7.1-35.3,16.9-50.7,28.9c-6.5,5.1-12.8,10.6-18.9,16c-8.4,7.4-17.2,15.1-26.6,21.7C1193.9-71.4,1133.3-67.5,1086-91.7z" transform="matrix(1, 0, 0, 1, 8.526512829121202e-14, 2.1316282072803006e-14)"/><path fill="#606060" d="M755.6,398.3c-4.4,0-8.8-1-12.8-3.4l-0.1-0.1l-0.1-0.1c-3.4-7.5,3.1-12.8,10-18.3&#10;&#9;&#9;&#9;&#9;c5.2-4.2,10.6-8.6,12.2-14.3c1.1-3.8,0.3-7.7-0.6-11.8c-0.3-1.7-0.7-3.4-0.9-5.2c-3-24.5,22.8-42.4,47.9-50.9l3-1&#10;&#9;&#9;&#9;&#9;c23-7.8,49.1-16.7,56.7-39.2c3-9,2.4-19,1.8-28.6c-0.7-10.8-1.4-22,3.2-31.9c6.2-13.5,20-20.8,33.4-27.9l2.3-1.2l0.2,0.4&#10;&#9;&#9;&#9;&#9;l-0.2-0.4c71.8-38.1,109.5-92.4,154.9-164.9c36.1-57.6,120.9-118,195.2-115.1c17.2,0.7,29.1,5.7,35.3,14.9&#10;&#9;&#9;&#9;&#9;c5.7,8.4,5.7,19.3,5.1,27.9c-3.5,46.3-28.4,92.6-70.1,130.3c-35.3,31.9-77.1,54.3-129,78.1l-1.2,0.6&#10;&#9;&#9;&#9;&#9;c-11.5,5.3-23.4,10.7-33.3,18.7c-15.5,12.3-25.7,30.1-35.5,47.2c-1,1.8-2.1,3.6-3.1,5.4c-14.3,24.7-31.2,49-57.2,59.6&#10;&#9;&#9;&#9;&#9;c-11.2,4.5-23.3,6.1-35.1,7.6c-4.7,0.6-9.5,1.2-14.1,2c-47.5,8.1-91.6,37.1-117.9,77.5c-1.8,2.7-3.5,5.5-5.1,8.2&#10;&#9;&#9;&#9;&#9;c-5.5,8.9-11.1,18.2-19,25.3C774.7,393.7,765.1,398.3,755.6,398.3z M743.4,394.2c12.2,7,27.9,1.2,37.3-7.2&#10;&#9;&#9;&#9;&#9;c7.8-7,13.4-16.2,18.9-25.1c1.7-2.7,3.4-5.6,5.2-8.3c26.4-40.7,70.7-69.8,118.5-78c4.7-0.8,9.5-1.4,14.2-2&#10;&#9;&#9;&#9;&#9;c11.7-1.5,23.8-3.1,34.8-7.6c25.8-10.5,42.5-34.6,56.7-59.1c1-1.8,2.1-3.6,3.1-5.4c9.9-17.2,20.1-35,35.7-47.5&#10;&#9;&#9;&#9;&#9;c10.1-8,22-13.5,33.5-18.8l1.2-0.6c51.8-23.8,93.5-46.2,128.7-78c41.5-37.6,66.3-83.6,69.8-129.6c0.6-8.4,0.6-19.1-4.9-27.3&#10;&#9;&#9;&#9;&#9;c-6-8.9-17.6-13.8-34.5-14.4c-73.8-2.9-158.3,57.3-194.3,114.6c-45.5,72.7-83.3,127-155.3,165.3l-2.3,1.2&#10;&#9;&#9;&#9;&#9;c-13.2,7-26.9,14.2-33,27.4c-4.4,9.7-3.7,20.7-3.1,31.4c0.6,9.7,1.3,19.7-1.9,29c-7.8,23-34.1,32-57.3,39.8l-3,1&#10;&#9;&#9;&#9;&#9;c-24.8,8.4-50.2,26-47.3,49.9c0.2,1.7,0.6,3.4,0.9,5.1c0.8,4,1.7,8.2,0.5,12.3c-1.7,6-7.2,10.5-12.5,14.8&#10;&#9;&#9;&#9;&#9;C746.4,382.7,740.5,387.4,743.4,394.2z" transform="matrix(1, 0, 0, 1, 8.526512829121202e-14, 2.1316282072803006e-14)"/><path fill="#606060" d="M526,698.9c-8.1,0-16.5-2.4-23.6-5.6c-14-6.5-26.4-16.3-36-28.3c-2.5-3.2-4.9-6.5-7.2-9.8&#10;&#9;&#9;&#9;&#9;c-5.1-7.2-10.3-14.6-17.3-20c-2.6-2-11.4-5.1-22.6-8.9c-29.3-10.1-73.5-25.3-78.5-45.9c-1.5-6.2,0.7-12.5,6.7-18.7&#10;&#9;&#9;&#9;&#9;c8.4-8.8,35.3,4.6,63.7,18.8c21.8,10.8,44.3,22.1,55.6,21.1l0,0c30.2-2.5,55.4-21.5,79.8-39.8c22-16.6,44.8-33.7,71.6-39.3&#10;&#9;&#9;&#9;&#9;c10.8-2.3,23.1-0.4,26.4,8.9c0.9,2.6,0.9,5.4,0.9,8.1c0,1.5,0,3.1,0.2,4.6c1.5,13,14.5,21.9,38.6,26.6l0.2,0l0.1,0.2&#10;&#9;&#9;&#9;&#9;c1.7,2.4,2.1,5,1.1,7.9c-2,5.9-9.7,11.1-15.9,12.9c-10.5,3.1-21.5,4.8-32.1,6.5c-10,1.6-20.3,3.2-30.1,5.9&#10;&#9;&#9;&#9;&#9;c-34.5,9.6-44.4,29.8-47.1,38c-1.9,5.9-2.6,12.4-3.3,18.8c-1.2,11.2-2.5,22.7-10.5,30.5C541,696.8,533.6,698.9,526,698.9z&#10;&#9;&#9;&#9;&#9; M355.5,559.9c-3.2,0-5.7,0.8-7.4,2.5c-5.7,6-7.8,11.9-6.4,17.8c4.9,20,48.8,35.1,77.9,45.2c11.7,4,20.1,6.9,22.9,9.1&#10;&#9;&#9;&#9;&#9;c7.1,5.5,12.4,13,17.5,20.2c2.3,3.3,4.7,6.6,7.2,9.8c9.5,11.9,21.9,21.6,35.7,28c13.5,6.3,31.9,9.1,43-1.8&#10;&#9;&#9;&#9;&#9;c7.8-7.6,9-18.4,10.2-29.9c0.7-6.4,1.4-13,3.4-19c2.7-8.4,12.8-28.9,47.8-38.6c9.9-2.8,20.3-4.4,30.3-6c10.6-1.7,21.6-3.4,32-6.5&#10;&#9;&#9;&#9;&#9;c5.9-1.8,13.3-6.7,15.2-12.3c0.8-2.4,0.5-4.7-0.9-6.8c-24.4-4.8-37.6-14-39.2-27.5c-0.2-1.6-0.2-3.2-0.2-4.8c0-2.7,0-5.3-0.9-7.7&#10;&#9;&#9;&#9;&#9;c-3.1-8.7-14.9-10.4-25.3-8.2c-26.5,5.5-49.2,22.6-71.2,39.1c-24.5,18.4-49.9,37.5-80.3,40l0,0c-11.7,1-33.3-9.8-56.2-21.2&#10;&#9;&#9;&#9;&#9;C389.4,570.8,367.6,559.9,355.5,559.9z" transform="matrix(1, 0, 0, 1, 8.526512829121202e-14, 2.1316282072803006e-14)"/>

</svg>