<svg xmlns="http://www.w3.org/2000/svg" viewBox="0 0 128 96"><path fill="#39C" d="M124.7 23.1c-4.4-6.7-11.8-11.8-23.2-16C90.1 3 78.1 1 64 1S37.9 3 26.5 7.1v31L64 64l60.7 9.9c2-3.1 3.2-6.5 3.2-9.9V34.8c.5-3.9-.6-7.7-3.2-11.7z"/><path d="M64 64L26.5 38.1v-31L64 33z" opacity=".1"/><path d="M124.7 73.9c2-3.1 3.2-6.5 3.2-9.9V33.3v.1c-.1 3.3-1.2 6.5-3.1 9.6v30.9z" opacity=".2"/><path d="M64 64l60.7 9.9v-31L64 33z" opacity=".1"/><path fill="#9C3" d="M26.5 15C15 19.2 7.6 24.3 3.3 31 .7 35-.3 38.8.2 42.7V64c0 3.5 1.1 6.8 3.2 9.9 4.2 6.5 12.4 12 23.2 15.9L64 64V40.9L26.5 15z"/><path d="M3.3 50.8c-2-3-3.1-6.2-3.1-9.6v-.1V64c0 3.5 1.1 6.8 3.2 9.9 4.2 6.5 12.4 12 23.2 15.9v-23c-10.9-4-19.1-9.5-23.3-16z" opacity=".2"/><path d="M64 64L26.5 89.9V66.7L64 40.9z" opacity=".4"/><path fill="#FC0" d="M64 48v48c14 0 27-2.3 37.5-6.1 10.8-3.9 19-9.5 23.2-15.9V58L64 48z"/><path d="M101.5 73.9C91 77.7 78 80 64 80v16c14 0 27-2.3 37.5-6.1 10.8-3.9 19-9.5 23.2-15.9V58c-4.2 6.4-12.4 12-23.2 15.9z" opacity=".2"/><g><path fill="#CC291F" d="M26.5 82.9L64 57v39c-14 0-27-2.3-37.5-6.1v-7z"/><path d="M26.5 89.9v-7C37 86.7 50 89 64 89v7c-14 0-27-2.3-37.5-6.1z" opacity=".2"/></g></svg>